<?xml version="1.0" encoding="UTF-8" standalone="no"?>
<!DOCTYPE svg PUBLIC "-//W3C//DTD SVG 1.1//EN"
 "http://www.w3.org/Graphics/SVG/1.1/DTD/svg11.dtd">
<!-- Generated by graphviz version 2.50.0 (0)
 -->
<!-- Title: soviet_party_state Pages: 1 -->
<svg width="441pt" height="676pt"
 viewBox="0.00 0.00 440.50 675.84" xmlns="http://www.w3.org/2000/svg" xmlns:xlink="http://www.w3.org/1999/xlink">
<g id="graph0" class="graph" transform="scale(1 1) rotate(0) translate(36 639.84)">
<title>soviet_party_state</title>
<polygon fill="white" stroke="transparent" points="-36,36 -36,-639.84 404.5,-639.84 404.5,36 -36,36"/>
<!-- politburo -->
<g id="node1" class="node">
<title>politburo</title>
<polygon fill="#fff5e0" stroke="#aa6600" stroke-width="3" points="320.5,-603.84 255.5,-603.84 255.5,-567.84 320.5,-567.84 320.5,-603.84"/>
<text text-anchor="middle" x="288" y="-582.74" font-family="Helvetica,sans-Serif" font-size="12.00" fill="#000000">政治局</text>
</g>
<!-- sovmin -->
<g id="node2" class="node">
<title>sovmin</title>
<polygon fill="#e8f5ee" stroke="#226644" stroke-width="1.5" points="327.5,-491.84 250.5,-491.84 250.5,-455.84 327.5,-455.84 327.5,-491.84"/>
<text text-anchor="middle" x="289" y="-470.74" font-family="Helvetica,sans-Serif" font-size="12.00" fill="#000000">部长会议</text>
</g>
<!-- politburo&#45;&gt;sovmin -->
<g id="edge12" class="edge">
<title>politburo&#45;&gt;sovmin</title>
<path fill="none" stroke="#333333" stroke-width="1.4" d="M288.16,-567.65C288.32,-550.06 288.57,-522.45 288.75,-501.91"/>
<polygon fill="#333333" stroke="#333333" stroke-width="1.4" points="292.25,-501.94 288.84,-491.91 285.25,-501.88 292.25,-501.94"/>
<text text-anchor="middle" x="314" y="-527.64" font-family="Helvetica,sans-Serif" font-size="9.00" fill="#333333">下一步 | 默认</text>
</g>
<!-- gosplan -->
<g id="node3" class="node">
<title>gosplan</title>
<polygon fill="#e8f5ee" stroke="#226644" stroke-width="1.5" points="318.5,-379.84 241.5,-379.84 241.5,-343.84 318.5,-343.84 318.5,-379.84"/>
<text text-anchor="middle" x="280" y="-358.74" font-family="Helvetica,sans-Serif" font-size="12.00" fill="#000000">国家计委</text>
</g>
<!-- sovmin&#45;&gt;gosplan -->
<g id="edge13" class="edge">
<title>sovmin&#45;&gt;gosplan</title>
<path fill="none" stroke="#333333" stroke-width="1.4" d="M287.59,-455.65C286.15,-438.06 283.9,-410.45 282.21,-389.91"/>
<polygon fill="#333333" stroke="#333333" stroke-width="1.4" points="285.7,-389.59 281.4,-379.91 278.72,-390.16 285.7,-389.59"/>
<text text-anchor="middle" x="310" y="-415.64" font-family="Helvetica,sans-Serif" font-size="9.00" fill="#333333">下一步 | 默认</text>
</g>
<!-- republic_exec -->
<g id="node4" class="node">
<title>republic_exec</title>
<polygon fill="#e8f5ee" stroke="#226644" stroke-width="1.5" points="368.5,-267.84 255.5,-267.84 255.5,-231.84 368.5,-231.84 368.5,-267.84"/>
<text text-anchor="middle" x="312" y="-246.74" font-family="Helvetica,sans-Serif" font-size="12.00" fill="#000000">共和国执行体系</text>
</g>
<!-- gosplan&#45;&gt;republic_exec -->
<g id="edge14" class="edge">
<title>gosplan&#45;&gt;republic_exec</title>
<path fill="none" stroke="#333333" stroke-width="1.4" d="M285,-343.65C290.14,-325.97 298.22,-298.19 304.21,-277.63"/>
<polygon fill="#333333" stroke="#333333" stroke-width="1.4" points="307.6,-278.49 307.04,-267.91 300.88,-276.53 307.6,-278.49"/>
<text text-anchor="middle" x="322" y="-303.64" font-family="Helvetica,sans-Serif" font-size="9.00" fill="#333333">下一步 | 默认</text>
</g>
<!-- supreme_soviet -->
<g id="node5" class="node">
<title>supreme_soviet</title>
<polygon fill="#e8f5ee" stroke="#226644" stroke-width="1.5" points="339.5,-155.84 250.5,-155.84 250.5,-119.84 339.5,-119.84 339.5,-155.84"/>
<text text-anchor="middle" x="295" y="-134.74" font-family="Helvetica,sans-Serif" font-size="12.00" fill="#000000">最高苏维埃</text>
</g>
<!-- republic_exec&#45;&gt;supreme_soviet -->
<g id="edge15" class="edge">
<title>republic_exec&#45;&gt;supreme_soviet</title>
<path fill="none" stroke="#333333" stroke-width="1.4" d="M309.34,-231.65C306.62,-214.06 302.36,-186.45 299.18,-165.91"/>
<polygon fill="#333333" stroke="#333333" stroke-width="1.4" points="302.62,-165.26 297.64,-155.91 295.71,-166.32 302.62,-165.26"/>
<text text-anchor="middle" x="330" y="-191.64" font-family="Helvetica,sans-Serif" font-size="9.00" fill="#333333">下一步 | 默认</text>
</g>
<!-- __terminal__ -->
<g id="node6" class="node">
<title>__terminal__</title>
<ellipse fill="#f4f4f4" stroke="#888888" stroke-width="1.5" cx="233" cy="-21.92" rx="45.92" ry="21.84"/>
<text text-anchor="middle" x="233" y="-18.82" font-family="Helvetica,sans-Serif" font-size="12.00" fill="#444444">已完成</text>
</g>
<!-- supreme_soviet&#45;&gt;__terminal__ -->
<g id="edge16" class="edge">
<title>supreme_soviet&#45;&gt;__terminal__</title>
<path fill="none" stroke="#333333" stroke-width="1.4" d="M285.58,-119.54C275.9,-101.75 260.65,-73.73 249.06,-52.43"/>
<polygon fill="#333333" stroke="#333333" stroke-width="1.4" points="252.04,-50.59 244.19,-43.48 245.89,-53.93 252.04,-50.59"/>
<text text-anchor="middle" x="293" y="-79.64" font-family="Helvetica,sans-Serif" font-size="9.00" fill="#333333">下一步 | 默认</text>
</g>
<!-- __row_label__politburo_planner -->
<g id="node7" class="node">
<title>__row_label__politburo_planner</title>
<text text-anchor="middle" x="96" y="-583.34" font-family="Helvetica,sans-Serif" font-size="10.00" fill="#666666">阶段: 政治局内部协商后输出统一政策决策…</text>
</g>
<!-- __row_label__politburo_planner&#45;&gt;politburo -->
<!-- __row_label__sovmin_deploy -->
<g id="node8" class="node">
<title>__row_label__sovmin_deploy</title>
<text text-anchor="middle" x="96" y="-471.34" font-family="Helvetica,sans-Serif" font-size="10.00" fill="#666666">阶段: 部长会议将政策转为部委执行部署。</text>
</g>
<!-- __row_label__politburo_planner&#45;&gt;__row_label__sovmin_deploy -->
<!-- __row_label__sovmin_deploy&#45;&gt;sovmin -->
<!-- __row_label__gosplan_allocate -->
<g id="node9" class="node">
<title>__row_label__gosplan_allocate</title>
<text text-anchor="middle" x="96" y="-359.34" font-family="Helvetica,sans-Serif" font-size="10.00" fill="#666666">阶段: 国家计委下达资源与指标配额。</text>
</g>
<!-- __row_label__sovmin_deploy&#45;&gt;__row_label__gosplan_allocate -->
<!-- __row_label__gosplan_allocate&#45;&gt;gosplan -->
<!-- __row_label__republic_execute -->
<g id="node10" class="node">
<title>__row_label__republic_execute</title>
<text text-anchor="middle" x="96" y="-247.34" font-family="Helvetica,sans-Serif" font-size="10.00" fill="#666666">阶段: 加盟共和国与地方层按指标执行并反…</text>
</g>
<!-- __row_label__gosplan_allocate&#45;&gt;__row_label__republic_execute -->
<!-- __row_label__republic_execute&#45;&gt;republic_exec -->
<!-- __row_label__formal_ratify -->
<g id="node11" class="node">
<title>__row_label__formal_ratify</title>
<text text-anchor="middle" x="96" y="-135.34" font-family="Helvetica,sans-Serif" font-size="10.00" fill="#666666">阶段: 最高苏维埃进行形式化追认与发布。</text>
</g>
<!-- __row_label__republic_execute&#45;&gt;__row_label__formal_ratify -->
<!-- __row_label__formal_ratify&#45;&gt;supreme_soviet -->
<!-- __row_label__completed -->
<g id="node12" class="node">
<title>__row_label__completed</title>
<text text-anchor="middle" x="96" y="-19.42" font-family="Helvetica,sans-Serif" font-size="10.00" fill="#666666">阶段: 已完成</text>
</g>
<!-- __row_label__formal_ratify&#45;&gt;__row_label__completed -->
<!-- __row_label__completed&#45;&gt;__terminal__ -->
</g>
</svg>
