<?xml version="1.0" encoding="UTF-8" standalone="no"?>
<!DOCTYPE svg PUBLIC "-//W3C//DTD SVG 1.1//EN"
 "http://www.w3.org/Graphics/SVG/1.1/DTD/svg11.dtd">
<!-- Generated by graphviz version 2.50.0 (0)
 -->
<!-- Title: edo_bakuhan Pages: 1 -->
<svg width="935pt" height="600pt"
 viewBox="0.00 0.00 934.82 599.68" xmlns="http://www.w3.org/2000/svg" xmlns:xlink="http://www.w3.org/1999/xlink">
<g id="graph0" class="graph" transform="scale(1 1) rotate(0) translate(36 563.68)">
<title>edo_bakuhan</title>
<polygon fill="white" stroke="transparent" points="-36,36 -36,-563.68 898.82,-563.68 898.82,36 -36,36"/>
<text text-anchor="middle" x="431.41" y="-509.28" font-family="Helvetica,sans-Serif" font-size="18.00" fill="#111111">日本江户幕藩体制（YAML）</text>
<!-- shogun -->
<g id="node1" class="node">
<title>shogun</title>
<polygon fill="#ddeeff" stroke="#2255aa" stroke-width="3" points="253,-499.68 182,-499.68 182,-463.68 253,-463.68 253,-499.68"/>
<text text-anchor="middle" x="217.5" y="-478.58" font-family="Helvetica,sans-Serif" font-size="12.00" fill="#000000">Shogun</text>
</g>
<!-- satsuma_daimyo -->
<g id="node2" class="node">
<title>satsuma_daimyo</title>
<ellipse fill="#e6fff8" stroke="#007755" stroke-width="1.5" stroke-dasharray="5,2" cx="583.5" cy="-365.76" rx="84.71" ry="21.84"/>
<text text-anchor="middle" x="583.5" y="-362.66" font-family="Helvetica,sans-Serif" font-size="12.00" fill="#000000">Satsuma Daimyo</text>
</g>
<!-- shogun&#45;&gt;satsuma_daimyo -->
<g id="edge10" class="edge">
<title>shogun&#45;&gt;satsuma_daimyo</title>
<path fill="none" stroke="#333333" stroke-width="1.4" d="M253.26,-469.55C315.53,-450.17 444.57,-410 521.62,-386.02"/>
<polygon fill="#333333" stroke="#333333" stroke-width="1.4" points="522.71,-389.35 531.21,-383.04 520.63,-382.67 522.71,-389.35"/>
<text text-anchor="middle" x="426.5" y="-423.48" font-family="Helvetica,sans-Serif" font-size="9.00" fill="#333333">next | default</text>
</g>
<!-- choshu_daimyo -->
<g id="node3" class="node">
<title>choshu_daimyo</title>
<ellipse fill="#e6fff8" stroke="#007755" stroke-width="1.5" stroke-dasharray="5,2" cx="781.5" cy="-365.76" rx="81.13" ry="21.84"/>
<text text-anchor="middle" x="781.5" y="-362.66" font-family="Helvetica,sans-Serif" font-size="12.00" fill="#000000">Choshu Daimyo</text>
</g>
<!-- shogun&#45;&gt;choshu_daimyo -->
<g id="edge11" class="edge">
<title>shogun&#45;&gt;choshu_daimyo</title>
<path fill="none" stroke="#333333" stroke-width="1.4" d="M253.28,-473.76C331.55,-458.57 523.82,-421 684.5,-387.68 692.74,-385.97 701.38,-384.15 709.95,-382.33"/>
<polygon fill="#333333" stroke="#333333" stroke-width="1.4" points="710.91,-385.7 719.95,-380.19 709.44,-378.86 710.91,-385.7"/>
<text text-anchor="middle" x="543.5" y="-423.48" font-family="Helvetica,sans-Serif" font-size="9.00" fill="#333333">next | default</text>
</g>
<!-- kaga_daimyo -->
<g id="node4" class="node">
<title>kaga_daimyo</title>
<ellipse fill="#e6fff8" stroke="#007755" stroke-width="1.5" stroke-dasharray="5,2" cx="395.5" cy="-365.76" rx="71.34" ry="21.84"/>
<text text-anchor="middle" x="395.5" y="-362.66" font-family="Helvetica,sans-Serif" font-size="12.00" fill="#000000">Kaga Daimyo</text>
</g>
<!-- shogun&#45;&gt;kaga_daimyo -->
<g id="edge12" class="edge">
<title>shogun&#45;&gt;kaga_daimyo</title>
<path fill="none" stroke="#333333" stroke-width="1.4" d="M244.15,-463.63C274.06,-444.48 322.86,-413.25 356.94,-391.44"/>
<polygon fill="#333333" stroke="#333333" stroke-width="1.4" points="359.16,-394.18 365.69,-385.84 355.38,-388.28 359.16,-394.18"/>
<text text-anchor="middle" x="332.5" y="-423.48" font-family="Helvetica,sans-Serif" font-size="9.00" fill="#333333">next | default</text>
</g>
<!-- tosa_daimyo -->
<g id="node5" class="node">
<title>tosa_daimyo</title>
<ellipse fill="#e6fff8" stroke="#007755" stroke-width="1.5" stroke-dasharray="5,2" cx="222.5" cy="-365.76" rx="69.09" ry="21.84"/>
<text text-anchor="middle" x="222.5" y="-362.66" font-family="Helvetica,sans-Serif" font-size="12.00" fill="#000000">Tosa Daimyo</text>
</g>
<!-- shogun&#45;&gt;tosa_daimyo -->
<g id="edge13" class="edge">
<title>shogun&#45;&gt;tosa_daimyo</title>
<path fill="none" stroke="#333333" stroke-width="1.4" d="M218.26,-463.38C219.02,-446.02 220.21,-418.91 221.14,-397.81"/>
<polygon fill="#333333" stroke="#333333" stroke-width="1.4" points="224.64,-397.86 221.58,-387.72 217.65,-397.55 224.64,-397.86"/>
<text text-anchor="middle" x="246.5" y="-423.48" font-family="Helvetica,sans-Serif" font-size="9.00" fill="#333333">next | default</text>
</g>
<!-- bakufu_roju -->
<g id="node6" class="node">
<title>bakufu_roju</title>
<polygon fill="#e8f5ee" stroke="#226644" stroke-width="1.5" points="337,-267.84 242,-267.84 242,-231.84 337,-231.84 337,-267.84"/>
<text text-anchor="middle" x="289.5" y="-246.74" font-family="Helvetica,sans-Serif" font-size="12.00" fill="#000000">Bakufu Roju</text>
</g>
<!-- satsuma_daimyo&#45;&gt;bakufu_roju -->
<g id="edge14" class="edge">
<title>satsuma_daimyo&#45;&gt;bakufu_roju</title>
<path fill="none" stroke="#333333" stroke-width="1.4" d="M538.21,-347.21C485.52,-326.8 398.65,-293.14 342.78,-271.48"/>
<polygon fill="#333333" stroke="#333333" stroke-width="1.4" points="343.99,-268.2 333.4,-267.85 341.46,-274.73 343.99,-268.2"/>
<text text-anchor="middle" x="470.5" y="-303.64" font-family="Helvetica,sans-Serif" font-size="9.00" fill="#333333">success | default</text>
</g>
<!-- bakufu_discipline -->
<g id="node7" class="node">
<title>bakufu_discipline</title>
<polygon fill="#e8f5ee" stroke="#226644" stroke-width="1.5" points="406.5,-155.84 284.5,-155.84 284.5,-119.84 406.5,-119.84 406.5,-155.84"/>
<text text-anchor="middle" x="345.5" y="-134.74" font-family="Helvetica,sans-Serif" font-size="12.00" fill="#000000">Bakufu Discipline</text>
</g>
<!-- satsuma_daimyo&#45;&gt;bakufu_discipline -->
<g id="edge18" class="edge">
<title>satsuma_daimyo&#45;&gt;bakufu_discipline</title>
<path fill="none" stroke="#cc2222" stroke-width="1.4" stroke-dasharray="5,2" d="M579.12,-343.55C572.34,-315.19 556.89,-264.68 527.5,-231.84 496.85,-197.6 450.62,-174.2 412.43,-159.44"/>
<polygon fill="#cc2222" stroke="#cc2222" stroke-width="1.4" points="413.5,-156.1 402.91,-155.87 411.04,-162.65 413.5,-156.1"/>
<text text-anchor="middle" x="563.5" y="-247.64" font-family="Helvetica,sans-Serif" font-size="9.00" fill="#cc2222">failure</text>
</g>
<!-- choshu_daimyo&#45;&gt;bakufu_roju -->
<g id="edge15" class="edge">
<title>choshu_daimyo&#45;&gt;bakufu_roju</title>
<path fill="none" stroke="#333333" stroke-width="1.4" d="M722.78,-350.58C668.32,-337.48 585,-317.58 512.5,-300.84 456.43,-287.89 392.32,-273.57 347.27,-263.58"/>
<polygon fill="#333333" stroke="#333333" stroke-width="1.4" points="347.91,-260.14 337.39,-261.39 346.4,-266.97 347.91,-260.14"/>
<text text-anchor="middle" x="582.5" y="-303.64" font-family="Helvetica,sans-Serif" font-size="9.00" fill="#333333">success | default</text>
</g>
<!-- choshu_daimyo&#45;&gt;bakufu_discipline -->
<g id="edge19" class="edge">
<title>choshu_daimyo&#45;&gt;bakufu_discipline</title>
<path fill="none" stroke="#cc2222" stroke-width="1.4" stroke-dasharray="5,2" d="M756.48,-344.68C709.89,-308.26 605.44,-231.17 505.5,-188.84 476.97,-176.76 444.51,-166.08 416.31,-157.72"/>
<polygon fill="#cc2222" stroke="#cc2222" stroke-width="1.4" points="417.11,-154.31 406.53,-154.87 415.14,-161.03 417.11,-154.31"/>
<text text-anchor="middle" x="661.5" y="-247.64" font-family="Helvetica,sans-Serif" font-size="9.00" fill="#cc2222">failure</text>
</g>
<!-- kaga_daimyo&#45;&gt;bakufu_roju -->
<g id="edge16" class="edge">
<title>kaga_daimyo&#45;&gt;bakufu_roju</title>
<path fill="none" stroke="#333333" stroke-width="1.4" d="M373.68,-344.81C363.1,-334.87 350.35,-322.5 339.5,-310.84 329.19,-299.77 318.37,-286.95 309.45,-276.01"/>
<polygon fill="#333333" stroke="#333333" stroke-width="1.4" points="312.04,-273.65 303.03,-268.07 306.59,-278.05 312.04,-273.65"/>
<text text-anchor="middle" x="373.5" y="-303.64" font-family="Helvetica,sans-Serif" font-size="9.00" fill="#333333">success | default</text>
</g>
<!-- kaga_daimyo&#45;&gt;bakufu_discipline -->
<g id="edge20" class="edge">
<title>kaga_daimyo&#45;&gt;bakufu_discipline</title>
<path fill="none" stroke="#cc2222" stroke-width="1.4" stroke-dasharray="5,2" d="M452.7,-352.58C475.34,-344.66 499.11,-331.75 512.5,-310.84 514.9,-307.1 514.23,-304.93 512.5,-300.84 486.25,-238.8 423.33,-188.85 382.66,-161.56"/>
<polygon fill="#cc2222" stroke="#cc2222" stroke-width="1.4" points="384.37,-158.49 374.09,-155.92 380.52,-164.34 384.37,-158.49"/>
<text text-anchor="middle" x="506.5" y="-247.64" font-family="Helvetica,sans-Serif" font-size="9.00" fill="#cc2222">failure</text>
</g>
<!-- tosa_daimyo&#45;&gt;bakufu_roju -->
<g id="edge17" class="edge">
<title>tosa_daimyo&#45;&gt;bakufu_roju</title>
<path fill="none" stroke="#333333" stroke-width="1.4" d="M223.08,-343.75C224.23,-330.69 227.18,-313.95 234.5,-300.84 240.04,-290.92 248.27,-281.91 256.7,-274.36"/>
<polygon fill="#333333" stroke="#333333" stroke-width="1.4" points="259.03,-276.97 264.41,-267.84 254.51,-271.62 259.03,-276.97"/>
<text text-anchor="middle" x="268.5" y="-303.64" font-family="Helvetica,sans-Serif" font-size="9.00" fill="#333333">success | default</text>
</g>
<!-- tosa_daimyo&#45;&gt;bakufu_discipline -->
<g id="edge21" class="edge">
<title>tosa_daimyo&#45;&gt;bakufu_discipline</title>
<path fill="none" stroke="#cc2222" stroke-width="1.4" stroke-dasharray="5,2" d="M211.13,-344.05C197.77,-316.69 179.79,-267.77 199.5,-231.84 217.99,-198.15 254.43,-174.91 286.29,-160.09"/>
<polygon fill="#cc2222" stroke="#cc2222" stroke-width="1.4" points="287.86,-163.22 295.56,-155.94 285,-156.83 287.86,-163.22"/>
<text text-anchor="middle" x="212.5" y="-247.64" font-family="Helvetica,sans-Serif" font-size="9.00" fill="#cc2222">failure</text>
</g>
<!-- bakufu_roju&#45;&gt;bakufu_discipline -->
<g id="edge23" class="edge">
<title>bakufu_roju&#45;&gt;bakufu_discipline</title>
<path fill="none" stroke="#cc2222" stroke-width="1.4" stroke-dasharray="5,2" d="M298.25,-231.65C307.33,-213.81 321.65,-185.69 332.15,-165.07"/>
<polygon fill="#cc2222" stroke="#cc2222" stroke-width="1.4" points="335.39,-166.41 336.81,-155.91 329.16,-163.23 335.39,-166.41"/>
<text text-anchor="middle" x="347.5" y="-191.64" font-family="Helvetica,sans-Serif" font-size="9.00" fill="#cc2222">non compliant</text>
</g>
<!-- __terminal__ -->
<g id="node8" class="node">
<title>__terminal__</title>
<ellipse fill="#f4f4f4" stroke="#888888" stroke-width="1.5" cx="223.5" cy="-21.92" rx="61.54" ry="21.84"/>
<text text-anchor="middle" x="223.5" y="-18.82" font-family="Helvetica,sans-Serif" font-size="12.00" fill="#444444">Completed</text>
</g>
<!-- bakufu_roju&#45;&gt;__terminal__ -->
<g id="edge22" class="edge">
<title>bakufu_roju&#45;&gt;__terminal__</title>
<path fill="none" stroke="#333333" stroke-width="1.4" d="M262.11,-231.67C238.93,-215.37 207.35,-188.53 193.5,-155.84 179.14,-121.93 193.33,-80.12 206.66,-52.55"/>
<polygon fill="#333333" stroke="#333333" stroke-width="1.4" points="209.89,-53.93 211.3,-43.43 203.65,-50.76 209.89,-53.93"/>
<text text-anchor="middle" x="231" y="-135.64" font-family="Helvetica,sans-Serif" font-size="9.00" fill="#333333">compliant | default</text>
</g>
<!-- bakufu_discipline&#45;&gt;__terminal__ -->
<g id="edge24" class="edge">
<title>bakufu_discipline&#45;&gt;__terminal__</title>
<path fill="none" stroke="#333333" stroke-width="1.4" d="M327.24,-119.79C307.41,-101.27 275.47,-71.45 252.27,-49.79"/>
<polygon fill="#333333" stroke="#333333" stroke-width="1.4" points="254.46,-47.04 244.77,-42.78 249.69,-52.16 254.46,-47.04"/>
<text text-anchor="middle" x="317.5" y="-79.64" font-family="Helvetica,sans-Serif" font-size="9.00" fill="#333333">next | default</text>
</g>
<!-- __row_label__shogun_orchestrate -->
<g id="node9" class="node">
<title>__row_label__shogun_orchestrate</title>
<text text-anchor="middle" x="60.5" y="-479.18" font-family="Helvetica,sans-Serif" font-size="10.00" fill="#666666">stage: shogun_orchestrate</text>
</g>
<!-- __row_label__shogun_orchestrate&#45;&gt;shogun -->
<!-- __row_label__han_cluster_execute -->
<g id="node10" class="node">
<title>__row_label__han_cluster_execute</title>
<text text-anchor="middle" x="60.5" y="-363.26" font-family="Helvetica,sans-Serif" font-size="10.00" fill="#666666">stage: han_cluster_execute</text>
</g>
<!-- __row_label__shogun_orchestrate&#45;&gt;__row_label__han_cluster_execute -->
<!-- __row_label__han_cluster_execute&#45;&gt;satsuma_daimyo -->
<!-- __row_label__sankin_kotai_check -->
<g id="node11" class="node">
<title>__row_label__sankin_kotai_check</title>
<text text-anchor="middle" x="60.5" y="-247.34" font-family="Helvetica,sans-Serif" font-size="10.00" fill="#666666">stage: sankin_kotai_check</text>
</g>
<!-- __row_label__han_cluster_execute&#45;&gt;__row_label__sankin_kotai_check -->
<!-- __row_label__sankin_kotai_check&#45;&gt;bakufu_roju -->
<!-- __row_label__sanction_enforce -->
<g id="node12" class="node">
<title>__row_label__sanction_enforce</title>
<text text-anchor="middle" x="60.5" y="-135.34" font-family="Helvetica,sans-Serif" font-size="10.00" fill="#666666">stage: sanction_enforce</text>
</g>
<!-- __row_label__sankin_kotai_check&#45;&gt;__row_label__sanction_enforce -->
<!-- __row_label__sanction_enforce&#45;&gt;bakufu_discipline -->
<!-- __row_label__completed -->
<g id="node13" class="node">
<title>__row_label__completed</title>
<text text-anchor="middle" x="60.5" y="-19.42" font-family="Helvetica,sans-Serif" font-size="10.00" fill="#666666">stage: completed</text>
</g>
<!-- __row_label__sanction_enforce&#45;&gt;__row_label__completed -->
<!-- __row_label__completed&#45;&gt;__terminal__ -->
</g>
</svg>
