<?xml version="1.0" encoding="UTF-8" standalone="no"?>
<!DOCTYPE svg PUBLIC "-//W3C//DTD SVG 1.1//EN"
 "http://www.w3.org/Graphics/SVG/1.1/DTD/svg11.dtd">
<!-- Generated by graphviz version 2.50.0 (0)
 -->
<!-- Title: edo_bakuhan Pages: 1 -->
<svg width="827pt" height="572pt"
 viewBox="0.00 0.00 827.45 571.68" xmlns="http://www.w3.org/2000/svg" xmlns:xlink="http://www.w3.org/1999/xlink">
<g id="graph0" class="graph" transform="scale(1 1) rotate(0) translate(36 535.68)">
<title>edo_bakuhan</title>
<polygon fill="white" stroke="transparent" points="-36,36 -36,-535.68 791.45,-535.68 791.45,36 -36,36"/>
<!-- shogun -->
<g id="node1" class="node">
<title>shogun</title>
<polygon fill="#ddeeff" stroke="#2255aa" stroke-width="3" points="310,-499.68 256,-499.68 256,-463.68 310,-463.68 310,-499.68"/>
<text text-anchor="middle" x="283" y="-478.58" font-family="Helvetica,sans-Serif" font-size="12.00" fill="#000000">将军</text>
</g>
<!-- satsuma_daimyo -->
<g id="node2" class="node">
<title>satsuma_daimyo</title>
<ellipse fill="#e6fff8" stroke="#007755" stroke-width="1.5" stroke-dasharray="5,2" cx="560" cy="-365.76" rx="54.39" ry="21.84"/>
<text text-anchor="middle" x="560" y="-362.66" font-family="Helvetica,sans-Serif" font-size="12.00" fill="#000000">萨摩大名</text>
</g>
<!-- shogun&#45;&gt;satsuma_daimyo -->
<g id="edge10" class="edge">
<title>shogun&#45;&gt;satsuma_daimyo</title>
<path fill="none" stroke="#333333" stroke-width="1.4" d="M310.07,-470.4C336.05,-460.47 376.34,-444.88 411,-430.68 446.14,-416.29 485.62,-399.31 515.11,-386.48"/>
<polygon fill="#333333" stroke="#333333" stroke-width="1.4" points="516.54,-389.67 524.31,-382.46 513.75,-383.25 516.54,-389.67"/>
<text text-anchor="middle" x="457" y="-423.48" font-family="Helvetica,sans-Serif" font-size="9.00" fill="#333333">下一步 | 默认</text>
</g>
<!-- choshu_daimyo -->
<g id="node3" class="node">
<title>choshu_daimyo</title>
<ellipse fill="#e6fff8" stroke="#007755" stroke-width="1.5" stroke-dasharray="5,2" cx="701" cy="-365.76" rx="54.39" ry="21.84"/>
<text text-anchor="middle" x="701" y="-362.66" font-family="Helvetica,sans-Serif" font-size="12.00" fill="#000000">长州大名</text>
</g>
<!-- shogun&#45;&gt;choshu_daimyo -->
<g id="edge11" class="edge">
<title>shogun&#45;&gt;choshu_daimyo</title>
<path fill="none" stroke="#333333" stroke-width="1.4" d="M310.06,-474.72C349.87,-465.82 426.49,-448.23 491,-430.68 545.75,-415.78 607.86,-396.59 650.24,-383.14"/>
<polygon fill="#333333" stroke="#333333" stroke-width="1.4" points="651.3,-386.47 659.77,-380.11 649.18,-379.8 651.3,-386.47"/>
<text text-anchor="middle" x="551" y="-423.48" font-family="Helvetica,sans-Serif" font-size="9.00" fill="#333333">下一步 | 默认</text>
</g>
<!-- kaga_daimyo -->
<g id="node4" class="node">
<title>kaga_daimyo</title>
<ellipse fill="#e6fff8" stroke="#007755" stroke-width="1.5" stroke-dasharray="5,2" cx="419" cy="-365.76" rx="54.39" ry="21.84"/>
<text text-anchor="middle" x="419" y="-362.66" font-family="Helvetica,sans-Serif" font-size="12.00" fill="#000000">加贺大名</text>
</g>
<!-- shogun&#45;&gt;kaga_daimyo -->
<g id="edge12" class="edge">
<title>shogun&#45;&gt;kaga_daimyo</title>
<path fill="none" stroke="#333333" stroke-width="1.4" d="M303.36,-463.63C325.92,-444.73 362.55,-414.05 388.53,-392.28"/>
<polygon fill="#333333" stroke="#333333" stroke-width="1.4" points="390.81,-394.94 396.23,-385.84 386.31,-389.57 390.81,-394.94"/>
<text text-anchor="middle" x="377" y="-423.48" font-family="Helvetica,sans-Serif" font-size="9.00" fill="#333333">下一步 | 默认</text>
</g>
<!-- tosa_daimyo -->
<g id="node5" class="node">
<title>tosa_daimyo</title>
<ellipse fill="#e6fff8" stroke="#007755" stroke-width="1.5" stroke-dasharray="5,2" cx="278" cy="-365.76" rx="54.39" ry="21.84"/>
<text text-anchor="middle" x="278" y="-362.66" font-family="Helvetica,sans-Serif" font-size="12.00" fill="#000000">土佐大名</text>
</g>
<!-- shogun&#45;&gt;tosa_daimyo -->
<g id="edge13" class="edge">
<title>shogun&#45;&gt;tosa_daimyo</title>
<path fill="none" stroke="#333333" stroke-width="1.4" d="M282.24,-463.38C281.48,-446.02 280.29,-418.91 279.36,-397.81"/>
<polygon fill="#333333" stroke="#333333" stroke-width="1.4" points="282.85,-397.55 278.92,-387.72 275.86,-397.86 282.85,-397.55"/>
<text text-anchor="middle" x="307" y="-423.48" font-family="Helvetica,sans-Serif" font-size="9.00" fill="#333333">下一步 | 默认</text>
</g>
<!-- bakufu_roju -->
<g id="node6" class="node">
<title>bakufu_roju</title>
<polygon fill="#e8f5ee" stroke="#226644" stroke-width="1.5" points="361,-267.84 307,-267.84 307,-231.84 361,-231.84 361,-267.84"/>
<text text-anchor="middle" x="334" y="-246.74" font-family="Helvetica,sans-Serif" font-size="12.00" fill="#000000">老中</text>
</g>
<!-- satsuma_daimyo&#45;&gt;bakufu_roju -->
<g id="edge14" class="edge">
<title>satsuma_daimyo&#45;&gt;bakufu_roju</title>
<path fill="none" stroke="#333333" stroke-width="1.4" d="M527.14,-348.2C485.39,-327.15 413.59,-290.96 370.28,-269.13"/>
<polygon fill="#333333" stroke="#333333" stroke-width="1.4" points="371.73,-265.94 361.23,-264.57 368.58,-272.19 371.73,-265.94"/>
<text text-anchor="middle" x="468.5" y="-303.64" font-family="Helvetica,sans-Serif" font-size="9.00" fill="#333333">成功 | 默认</text>
</g>
<!-- bakufu_discipline -->
<g id="node7" class="node">
<title>bakufu_discipline</title>
<polygon fill="#e8f5ee" stroke="#226644" stroke-width="1.5" points="429.5,-155.84 328.5,-155.84 328.5,-119.84 429.5,-119.84 429.5,-155.84"/>
<text text-anchor="middle" x="379" y="-134.74" font-family="Helvetica,sans-Serif" font-size="12.00" fill="#000000">幕府惩戒机构</text>
</g>
<!-- satsuma_daimyo&#45;&gt;bakufu_discipline -->
<g id="edge18" class="edge">
<title>satsuma_daimyo&#45;&gt;bakufu_discipline</title>
<path fill="none" stroke="#cc2222" stroke-width="1.4" stroke-dasharray="5,2" d="M555.68,-343.81C549.23,-316.18 535.06,-266.96 510,-231.84 488.07,-201.11 452.71,-176.88 424.25,-160.86"/>
<polygon fill="#cc2222" stroke="#cc2222" stroke-width="1.4" points="425.73,-157.68 415.28,-155.95 422.37,-163.83 425.73,-157.68"/>
<text text-anchor="middle" x="539.5" y="-247.64" font-family="Helvetica,sans-Serif" font-size="9.00" fill="#cc2222">失败</text>
</g>
<!-- choshu_daimyo&#45;&gt;bakufu_roju -->
<g id="edge15" class="edge">
<title>choshu_daimyo&#45;&gt;bakufu_roju</title>
<path fill="none" stroke="#333333" stroke-width="1.4" d="M659.43,-351.55C618.43,-338.55 553.94,-318.17 498,-300.84 454.33,-287.31 404.02,-272.01 370.76,-261.94"/>
<polygon fill="#333333" stroke="#333333" stroke-width="1.4" points="371.6,-258.54 361.01,-258.99 369.57,-265.24 371.6,-258.54"/>
<text text-anchor="middle" x="546.5" y="-303.64" font-family="Helvetica,sans-Serif" font-size="9.00" fill="#333333">成功 | 默认</text>
</g>
<!-- choshu_daimyo&#45;&gt;bakufu_discipline -->
<g id="edge19" class="edge">
<title>choshu_daimyo&#45;&gt;bakufu_discipline</title>
<path fill="none" stroke="#cc2222" stroke-width="1.4" stroke-dasharray="5,2" d="M683.29,-344.95C650.12,-308.96 574.9,-232.55 497,-188.84 477.49,-177.89 455.09,-167.83 435.09,-159.64"/>
<polygon fill="#cc2222" stroke="#cc2222" stroke-width="1.4" points="436.38,-156.39 425.79,-155.9 433.76,-162.88 436.38,-156.39"/>
<text text-anchor="middle" x="611.5" y="-247.64" font-family="Helvetica,sans-Serif" font-size="9.00" fill="#cc2222">失败</text>
</g>
<!-- kaga_daimyo&#45;&gt;bakufu_roju -->
<g id="edge16" class="edge">
<title>kaga_daimyo&#45;&gt;bakufu_roju</title>
<path fill="none" stroke="#333333" stroke-width="1.4" d="M399.89,-344.99C390.72,-335.09 379.83,-322.7 371,-310.84 362.95,-300.03 354.98,-287.41 348.5,-276.54"/>
<polygon fill="#333333" stroke="#333333" stroke-width="1.4" points="351.52,-274.77 343.45,-267.91 345.48,-278.31 351.52,-274.77"/>
<text text-anchor="middle" x="392.5" y="-303.64" font-family="Helvetica,sans-Serif" font-size="9.00" fill="#333333">成功 | 默认</text>
</g>
<!-- kaga_daimyo&#45;&gt;bakufu_discipline -->
<g id="edge20" class="edge">
<title>kaga_daimyo&#45;&gt;bakufu_discipline</title>
<path fill="none" stroke="#cc2222" stroke-width="1.4" stroke-dasharray="5,2" d="M459.48,-350.94C482.54,-340.38 505.5,-323.72 498,-300.84 479.74,-245.13 434.2,-192.78 405.05,-163.36"/>
<polygon fill="#cc2222" stroke="#cc2222" stroke-width="1.4" points="407.23,-160.59 397.66,-156.04 402.3,-165.57 407.23,-160.59"/>
<text text-anchor="middle" x="492.5" y="-247.64" font-family="Helvetica,sans-Serif" font-size="9.00" fill="#cc2222">失败</text>
</g>
<!-- tosa_daimyo&#45;&gt;bakufu_roju -->
<g id="edge17" class="edge">
<title>tosa_daimyo&#45;&gt;bakufu_roju</title>
<path fill="none" stroke="#333333" stroke-width="1.4" d="M279.57,-343.75C281.17,-330.84 284.42,-314.27 291,-300.84 295.36,-291.93 301.7,-283.32 308.17,-275.84"/>
<polygon fill="#333333" stroke="#333333" stroke-width="1.4" points="311,-277.93 315.17,-268.19 305.84,-273.21 311,-277.93"/>
<text text-anchor="middle" x="312.5" y="-303.64" font-family="Helvetica,sans-Serif" font-size="9.00" fill="#333333">成功 | 默认</text>
</g>
<!-- tosa_daimyo&#45;&gt;bakufu_discipline -->
<g id="edge21" class="edge">
<title>tosa_daimyo&#45;&gt;bakufu_discipline</title>
<path fill="none" stroke="#cc2222" stroke-width="1.4" stroke-dasharray="5,2" d="M271.42,-343.84C264.09,-316.68 255.33,-268.41 272,-231.84 285.73,-201.72 314.56,-177.58 338.84,-161.45"/>
<polygon fill="#cc2222" stroke="#cc2222" stroke-width="1.4" points="341.01,-164.22 347.54,-155.87 337.24,-158.32 341.01,-164.22"/>
<text text-anchor="middle" x="281.5" y="-247.64" font-family="Helvetica,sans-Serif" font-size="9.00" fill="#cc2222">失败</text>
</g>
<!-- bakufu_roju&#45;&gt;bakufu_discipline -->
<g id="edge23" class="edge">
<title>bakufu_roju&#45;&gt;bakufu_discipline</title>
<path fill="none" stroke="#cc2222" stroke-width="1.4" stroke-dasharray="5,2" d="M341.03,-231.65C348.3,-213.89 359.73,-185.94 368.16,-165.35"/>
<polygon fill="#cc2222" stroke="#cc2222" stroke-width="1.4" points="371.47,-166.49 372.02,-155.91 364.99,-163.84 371.47,-166.49"/>
<text text-anchor="middle" x="371" y="-191.64" font-family="Helvetica,sans-Serif" font-size="9.00" fill="#cc2222">不合规</text>
</g>
<!-- __terminal__ -->
<g id="node8" class="node">
<title>__terminal__</title>
<ellipse fill="#f4f4f4" stroke="#888888" stroke-width="1.5" cx="233" cy="-21.92" rx="45.92" ry="21.84"/>
<text text-anchor="middle" x="233" y="-18.82" font-family="Helvetica,sans-Serif" font-size="12.00" fill="#444444">已完成</text>
</g>
<!-- bakufu_roju&#45;&gt;__terminal__ -->
<g id="edge22" class="edge">
<title>bakufu_roju&#45;&gt;__terminal__</title>
<path fill="none" stroke="#333333" stroke-width="1.4" d="M319.34,-231.79C304.68,-213.95 282.43,-184.57 269,-155.84 253.47,-122.62 243.63,-81.48 238.23,-53.85"/>
<polygon fill="#333333" stroke="#333333" stroke-width="1.4" points="241.66,-53.14 236.38,-43.96 234.78,-54.43 241.66,-53.14"/>
<text text-anchor="middle" x="290.5" y="-135.64" font-family="Helvetica,sans-Serif" font-size="9.00" fill="#333333">合规 | 默认</text>
</g>
<!-- bakufu_discipline&#45;&gt;__terminal__ -->
<g id="edge24" class="edge">
<title>bakufu_discipline&#45;&gt;__terminal__</title>
<path fill="none" stroke="#333333" stroke-width="1.4" d="M357.14,-119.79C332.53,-100.58 292.32,-69.2 264.36,-47.39"/>
<polygon fill="#333333" stroke="#333333" stroke-width="1.4" points="266.5,-44.62 256.46,-41.23 262.19,-50.14 266.5,-44.62"/>
<text text-anchor="middle" x="341" y="-79.64" font-family="Helvetica,sans-Serif" font-size="9.00" fill="#333333">下一步 | 默认</text>
</g>
<!-- __row_label__shogun_orchestrate -->
<g id="node9" class="node">
<title>__row_label__shogun_orchestrate</title>
<text text-anchor="middle" x="96" y="-479.18" font-family="Helvetica,sans-Serif" font-size="10.00" fill="#666666">阶段: 将军通过老中发布全国性政策目标与…</text>
</g>
<!-- __row_label__shogun_orchestrate&#45;&gt;shogun -->
<!-- __row_label__han_cluster_execute -->
<g id="node10" class="node">
<title>__row_label__han_cluster_execute</title>
<text text-anchor="middle" x="96" y="-363.26" font-family="Helvetica,sans-Serif" font-size="10.00" fill="#666666">阶段: 各藩在自治权限内自行制定和执行地…</text>
</g>
<!-- __row_label__shogun_orchestrate&#45;&gt;__row_label__han_cluster_execute -->
<!-- __row_label__han_cluster_execute&#45;&gt;satsuma_daimyo -->
<!-- __row_label__sankin_kotai_check -->
<g id="node11" class="node">
<title>__row_label__sankin_kotai_check</title>
<text text-anchor="middle" x="96" y="-247.34" font-family="Helvetica,sans-Serif" font-size="10.00" fill="#666666">阶段: 参觐交代周期内核验各藩心跳回报与…</text>
</g>
<!-- __row_label__han_cluster_execute&#45;&gt;__row_label__sankin_kotai_check -->
<!-- __row_label__sankin_kotai_check&#45;&gt;bakufu_roju -->
<!-- __row_label__sanction_enforce -->
<g id="node12" class="node">
<title>__row_label__sanction_enforce</title>
<text text-anchor="middle" x="96" y="-135.34" font-family="Helvetica,sans-Serif" font-size="10.00" fill="#666666">阶段: 对严重违规藩执行改易/减封等惩罚…</text>
</g>
<!-- __row_label__sankin_kotai_check&#45;&gt;__row_label__sanction_enforce -->
<!-- __row_label__sanction_enforce&#45;&gt;bakufu_discipline -->
<!-- __row_label__completed -->
<g id="node13" class="node">
<title>__row_label__completed</title>
<text text-anchor="middle" x="96" y="-19.42" font-family="Helvetica,sans-Serif" font-size="10.00" fill="#666666">阶段: 已完成</text>
</g>
<!-- __row_label__sanction_enforce&#45;&gt;__row_label__completed -->
<!-- __row_label__completed&#45;&gt;__terminal__ -->
</g>
</svg>
