<?xml version="1.0" encoding="UTF-8" standalone="no"?>
<!DOCTYPE svg PUBLIC "-//W3C//DTD SVG 1.1//EN"
 "http://www.w3.org/Graphics/SVG/1.1/DTD/svg11.dtd">
<!-- Generated by graphviz version 2.50.0 (0)
 -->
<!-- Title: us_federal_gated Pages: 1 -->
<svg width="993pt" height="1185pt"
 viewBox="0.00 0.00 992.50 1184.84" xmlns="http://www.w3.org/2000/svg" xmlns:xlink="http://www.w3.org/1999/xlink">
<g id="graph0" class="graph" transform="scale(1 1) rotate(0) translate(36 1148.84)">
<title>us_federal_gated</title>
<polygon fill="white" stroke="transparent" points="-36,36 -36,-1148.84 956.5,-1148.84 956.5,36 -36,36"/>
<text text-anchor="middle" x="460.25" y="-1094.44" font-family="Helvetica,sans-Serif" font-size="18.00" fill="#111111">美国联邦总统制（YAML）</text>
<!-- legislator -->
<g id="node1" class="node">
<title>legislator</title>
<polygon fill="#ddeeff" stroke="#2255aa" stroke-width="3" points="256,-1084.84 175,-1084.84 175,-1048.84 256,-1048.84 256,-1084.84"/>
<text text-anchor="middle" x="215.5" y="-1063.74" font-family="Helvetica,sans-Serif" font-size="12.00" fill="#000000">Legislator</text>
</g>
<!-- committee -->
<g id="node2" class="node">
<title>committee</title>
<polygon fill="#ffe8e8" stroke="#cc2222" stroke-width="1.5" points="243.5,-972.84 174.13,-940.34 243.5,-907.84 312.87,-940.34 243.5,-972.84"/>
<text text-anchor="middle" x="243.5" y="-937.24" font-family="Helvetica,sans-Serif" font-size="12.00" fill="#000000">Committee</text>
</g>
<!-- legislator&#45;&gt;committee -->
<g id="edge18" class="edge">
<title>legislator&#45;&gt;committee</title>
<path fill="none" stroke="#333333" stroke-width="1.4" d="M219.33,-1048.79C223.3,-1031.15 229.63,-1003.02 234.81,-979.96"/>
<polygon fill="#333333" stroke="#333333" stroke-width="1.4" points="238.25,-980.63 237.03,-970.11 231.42,-979.1 238.25,-980.63"/>
<text text-anchor="middle" x="255.5" y="-1008.64" font-family="Helvetica,sans-Serif" font-size="9.00" fill="#333333">next | default</text>
</g>
<!-- house -->
<g id="node3" class="node">
<title>house</title>
<polygon fill="#ffe8e8" stroke="#cc2222" stroke-width="1.5" points="217.5,-831.84 160,-799.34 217.5,-766.84 275,-799.34 217.5,-831.84"/>
<text text-anchor="middle" x="217.5" y="-796.24" font-family="Helvetica,sans-Serif" font-size="12.00" fill="#000000">House</text>
</g>
<!-- committee&#45;&gt;house -->
<g id="edge19" class="edge">
<title>committee&#45;&gt;house</title>
<path fill="none" stroke="#333333" stroke-width="1.4" d="M238.05,-910.2C234.18,-889.49 228.93,-861.46 224.71,-838.9"/>
<polygon fill="#333333" stroke="#333333" stroke-width="1.4" points="228.13,-838.15 222.85,-828.97 221.25,-839.44 228.13,-838.15"/>
<text text-anchor="middle" x="260.5" y="-867.64" font-family="Helvetica,sans-Serif" font-size="9.00" fill="#333333">approve | next</text>
</g>
<!-- __terminal__ -->
<g id="node9" class="node">
<title>__terminal__</title>
<ellipse fill="#f4f4f4" stroke="#888888" stroke-width="1.5" cx="218.5" cy="-21.92" rx="61.54" ry="21.84"/>
<text text-anchor="middle" x="218.5" y="-18.82" font-family="Helvetica,sans-Serif" font-size="12.00" fill="#444444">Completed</text>
</g>
<!-- committee&#45;&gt;__terminal__ -->
<g id="edge20" class="edge">
<title>committee&#45;&gt;__terminal__</title>
<path fill="none" stroke="#cc2222" stroke-width="1.4" stroke-dasharray="5,2" d="M308.87,-938.39C467.98,-934.33 862.5,-912.89 862.5,-800.34 862.5,-800.34 862.5,-800.34 862.5,-136.84 862.5,-71.99 792.09,-93.79 729.5,-76.84 576.74,-35.47 390.3,-25.55 290.22,-23.35"/>
<polygon fill="#cc2222" stroke="#cc2222" stroke-width="1.4" points="290.29,-19.85 280.22,-23.15 290.15,-26.85 290.29,-19.85"/>
<text text-anchor="middle" x="891.5" y="-444.64" font-family="Helvetica,sans-Serif" font-size="9.00" fill="#cc2222">reject | default</text>
</g>
<!-- senate -->
<g id="node4" class="node">
<title>senate</title>
<polygon fill="#ffe8e8" stroke="#cc2222" stroke-width="1.5" points="218.5,-690.84 161,-658.34 218.5,-625.84 276,-658.34 218.5,-690.84"/>
<text text-anchor="middle" x="218.5" y="-655.24" font-family="Helvetica,sans-Serif" font-size="12.00" fill="#000000">Senate</text>
</g>
<!-- house&#45;&gt;senate -->
<g id="edge21" class="edge">
<title>house&#45;&gt;senate</title>
<path fill="none" stroke="#333333" stroke-width="1.4" d="M217.73,-766.8C217.87,-747.25 218.05,-721.92 218.2,-700.76"/>
<polygon fill="#333333" stroke="#333333" stroke-width="1.4" points="221.7,-700.78 218.27,-690.76 214.7,-700.73 221.7,-700.78"/>
<text text-anchor="middle" x="247.5" y="-726.64" font-family="Helvetica,sans-Serif" font-size="9.00" fill="#333333">approve | next</text>
</g>
<!-- house&#45;&gt;__terminal__ -->
<g id="edge22" class="edge">
<title>house&#45;&gt;__terminal__</title>
<path fill="none" stroke="#cc2222" stroke-width="1.4" stroke-dasharray="5,2" d="M269.09,-795.99C403.74,-788.44 755.5,-759.19 755.5,-659.34 755.5,-659.34 755.5,-659.34 755.5,-136.84 755.5,-42.84 436.64,-26.06 290.33,-23.31"/>
<polygon fill="#cc2222" stroke="#cc2222" stroke-width="1.4" points="290.16,-19.81 280.1,-23.14 290.04,-26.81 290.16,-19.81"/>
<text text-anchor="middle" x="784.5" y="-374.14" font-family="Helvetica,sans-Serif" font-size="9.00" fill="#cc2222">reject | default</text>
</g>
<!-- president -->
<g id="node5" class="node">
<title>president</title>
<polygon fill="#ffe8e8" stroke="#cc2222" stroke-width="1.5" points="230.5,-549.84 166.28,-517.34 230.5,-484.84 294.72,-517.34 230.5,-549.84"/>
<text text-anchor="middle" x="230.5" y="-514.24" font-family="Helvetica,sans-Serif" font-size="12.00" fill="#000000">President</text>
</g>
<!-- senate&#45;&gt;president -->
<g id="edge23" class="edge">
<title>senate&#45;&gt;president</title>
<path fill="none" stroke="#333333" stroke-width="1.4" d="M221.1,-627.18C222.83,-607.19 225.11,-580.73 227,-558.9"/>
<polygon fill="#333333" stroke="#333333" stroke-width="1.4" points="230.49,-559.19 227.86,-548.92 223.51,-558.58 230.49,-559.19"/>
<text text-anchor="middle" x="254.5" y="-585.64" font-family="Helvetica,sans-Serif" font-size="9.00" fill="#333333">approve | next</text>
</g>
<!-- senate&#45;&gt;__terminal__ -->
<g id="edge24" class="edge">
<title>senate&#45;&gt;__terminal__</title>
<path fill="none" stroke="#cc2222" stroke-width="1.4" stroke-dasharray="5,2" d="M266.87,-652.96C384.23,-641 674.5,-602.86 674.5,-518.34 674.5,-518.34 674.5,-518.34 674.5,-136.84 674.5,-58.48 417.87,-33.58 289.65,-26.03"/>
<polygon fill="#cc2222" stroke="#cc2222" stroke-width="1.4" points="289.71,-22.52 279.53,-25.45 289.31,-29.51 289.71,-22.52"/>
<text text-anchor="middle" x="703.5" y="-303.64" font-family="Helvetica,sans-Serif" font-size="9.00" fill="#cc2222">reject | default</text>
</g>
<!-- congress_override_panel -->
<g id="node6" class="node">
<title>congress_override_panel</title>
<polygon fill="#ffe8e8" stroke="#cc2222" stroke-width="1.5" points="305.5,-408.84 173.63,-376.34 305.5,-343.84 437.37,-376.34 305.5,-408.84"/>
<text text-anchor="middle" x="305.5" y="-373.24" font-family="Helvetica,sans-Serif" font-size="12.00" fill="#000000">Congress Override Panel</text>
</g>
<!-- president&#45;&gt;congress_override_panel -->
<g id="edge26" class="edge">
<title>president&#45;&gt;congress_override_panel</title>
<path fill="none" stroke="#cc2222" stroke-width="1.4" stroke-dasharray="5,2" d="M243.91,-491.49C255.49,-470.03 272.39,-438.71 285.56,-414.3"/>
<polygon fill="#cc2222" stroke="#cc2222" stroke-width="1.4" points="288.73,-415.78 290.4,-405.32 282.57,-412.46 288.73,-415.78"/>
<text text-anchor="middle" x="279.5" y="-444.64" font-family="Helvetica,sans-Serif" font-size="9.00" fill="#cc2222">veto</text>
</g>
<!-- agency -->
<g id="node7" class="node">
<title>agency</title>
<polygon fill="#e8f5ee" stroke="#226644" stroke-width="1.5" points="274,-267.84 205,-267.84 205,-231.84 274,-231.84 274,-267.84"/>
<text text-anchor="middle" x="239.5" y="-246.74" font-family="Helvetica,sans-Serif" font-size="12.00" fill="#000000">Agency</text>
</g>
<!-- president&#45;&gt;agency -->
<g id="edge25" class="edge">
<title>president&#45;&gt;agency</title>
<path fill="none" stroke="#333333" stroke-width="1.4" d="M277.82,-508.64C331.06,-497.17 415.1,-469.99 453.5,-408.84 468.86,-384.38 469.34,-368 453.5,-343.84 416.09,-286.8 335.3,-264.56 284.38,-256.02"/>
<polygon fill="#333333" stroke="#333333" stroke-width="1.4" points="284.73,-252.53 274.31,-254.44 283.65,-259.45 284.73,-252.53"/>
<text text-anchor="middle" x="494.5" y="-374.14" font-family="Helvetica,sans-Serif" font-size="9.00" fill="#333333">approve | next</text>
</g>
<!-- president&#45;&gt;__terminal__ -->
<g id="edge27" class="edge">
<title>president&#45;&gt;__terminal__</title>
<path fill="none" stroke="#333333" stroke-width="1.4" d="M290.82,-515.36C363.26,-510.45 481.28,-489.68 531.5,-408.84 610.48,-281.71 498.69,-190.61 358.5,-76.84 335.73,-58.36 305.9,-45.7 279.63,-37.32"/>
<polygon fill="#333333" stroke="#333333" stroke-width="1.4" points="280.34,-33.88 269.75,-34.32 278.3,-40.58 280.34,-33.88"/>
<text text-anchor="middle" x="557.5" y="-247.64" font-family="Helvetica,sans-Serif" font-size="9.00" fill="#333333">default</text>
</g>
<!-- congress_override_panel&#45;&gt;agency -->
<g id="edge28" class="edge">
<title>congress_override_panel&#45;&gt;agency</title>
<path fill="none" stroke="#333333" stroke-width="1.4" d="M290.69,-347.4C279.48,-326.26 264.21,-297.45 253.27,-276.81"/>
<polygon fill="#333333" stroke="#333333" stroke-width="1.4" points="256.35,-275.15 248.57,-267.96 250.17,-278.43 256.35,-275.15"/>
<text text-anchor="middle" x="300.5" y="-303.64" font-family="Helvetica,sans-Serif" font-size="9.00" fill="#333333">approve | next</text>
</g>
<!-- congress_override_panel&#45;&gt;__terminal__ -->
<g id="edge29" class="edge">
<title>congress_override_panel&#45;&gt;__terminal__</title>
<path fill="none" stroke="#cc2222" stroke-width="1.4" stroke-dasharray="5,2" d="M269.67,-352.58C242.72,-333.41 207.3,-303.45 188.5,-267.84 157.7,-209.51 164.39,-184.48 177.5,-119.84 182.26,-96.36 192.9,-71.5 202.15,-52.84"/>
<polygon fill="#cc2222" stroke="#cc2222" stroke-width="1.4" points="205.4,-54.18 206.82,-43.69 199.16,-51 205.4,-54.18"/>
<text text-anchor="middle" x="196.5" y="-191.64" font-family="Helvetica,sans-Serif" font-size="9.00" fill="#cc2222">reject | default</text>
</g>
<!-- supreme_court -->
<g id="node8" class="node">
<title>supreme_court</title>
<polygon fill="#f0e8ff" stroke="#6633aa" stroke-width="1.5" points="303.5,-155.84 193.5,-155.84 193.5,-119.84 303.5,-119.84 303.5,-155.84"/>
<text text-anchor="middle" x="248.5" y="-134.74" font-family="Helvetica,sans-Serif" font-size="12.00" fill="#000000">Supreme Court</text>
</g>
<!-- agency&#45;&gt;supreme_court -->
<g id="edge30" class="edge">
<title>agency&#45;&gt;supreme_court</title>
<path fill="none" stroke="#333333" stroke-width="1.4" d="M240.91,-231.65C242.35,-214.06 244.6,-186.45 246.29,-165.91"/>
<polygon fill="#333333" stroke="#333333" stroke-width="1.4" points="249.78,-166.16 247.1,-155.91 242.8,-165.59 249.78,-166.16"/>
<text text-anchor="middle" x="270.5" y="-191.64" font-family="Helvetica,sans-Serif" font-size="9.00" fill="#333333">next | default</text>
</g>
<!-- supreme_court&#45;&gt;__terminal__ -->
<g id="edge31" class="edge">
<title>supreme_court&#45;&gt;__terminal__</title>
<path fill="none" stroke="#6633aa" stroke-width="1.4" stroke-dasharray="1,5" d="M243.94,-119.54C239.35,-102.1 232.17,-74.82 226.6,-53.69"/>
<polygon fill="#6633aa" stroke="#6633aa" stroke-width="1.4" points="229.95,-52.65 224.02,-43.88 223.18,-54.44 229.95,-52.65"/>
<text text-anchor="middle" x="293" y="-79.64" font-family="Helvetica,sans-Serif" font-size="9.00" fill="#6633aa">approve | invalidate | default</text>
</g>
<!-- __row_label__legislator_initiative -->
<g id="node10" class="node">
<title>__row_label__legislator_initiative</title>
<text text-anchor="middle" x="55.5" y="-1064.34" font-family="Helvetica,sans-Serif" font-size="10.00" fill="#666666">stage: legislator_initiative</text>
</g>
<!-- __row_label__legislator_initiative&#45;&gt;legislator -->
<!-- __row_label__committee_modify -->
<g id="node11" class="node">
<title>__row_label__committee_modify</title>
<text text-anchor="middle" x="55.5" y="-937.84" font-family="Helvetica,sans-Serif" font-size="10.00" fill="#666666">stage: committee_modify</text>
</g>
<!-- __row_label__legislator_initiative&#45;&gt;__row_label__committee_modify -->
<!-- __row_label__committee_modify&#45;&gt;committee -->
<!-- __row_label__house_vote -->
<g id="node12" class="node">
<title>__row_label__house_vote</title>
<text text-anchor="middle" x="55.5" y="-796.84" font-family="Helvetica,sans-Serif" font-size="10.00" fill="#666666">stage: house_vote</text>
</g>
<!-- __row_label__committee_modify&#45;&gt;__row_label__house_vote -->
<!-- __row_label__house_vote&#45;&gt;house -->
<!-- __row_label__senate_vote -->
<g id="node13" class="node">
<title>__row_label__senate_vote</title>
<text text-anchor="middle" x="55.5" y="-655.84" font-family="Helvetica,sans-Serif" font-size="10.00" fill="#666666">stage: senate_vote</text>
</g>
<!-- __row_label__house_vote&#45;&gt;__row_label__senate_vote -->
<!-- __row_label__senate_vote&#45;&gt;senate -->
<!-- __row_label__president_veto -->
<g id="node14" class="node">
<title>__row_label__president_veto</title>
<text text-anchor="middle" x="55.5" y="-514.84" font-family="Helvetica,sans-Serif" font-size="10.00" fill="#666666">stage: president_veto</text>
</g>
<!-- __row_label__senate_vote&#45;&gt;__row_label__president_veto -->
<!-- __row_label__president_veto&#45;&gt;president -->
<!-- __row_label__congress_override -->
<g id="node15" class="node">
<title>__row_label__congress_override</title>
<text text-anchor="middle" x="55.5" y="-373.84" font-family="Helvetica,sans-Serif" font-size="10.00" fill="#666666">stage: congress_override</text>
</g>
<!-- __row_label__president_veto&#45;&gt;__row_label__congress_override -->
<!-- __row_label__congress_override&#45;&gt;congress_override_panel -->
<!-- __row_label__agency_execute -->
<g id="node16" class="node">
<title>__row_label__agency_execute</title>
<text text-anchor="middle" x="55.5" y="-247.34" font-family="Helvetica,sans-Serif" font-size="10.00" fill="#666666">stage: agency_execute</text>
</g>
<!-- __row_label__congress_override&#45;&gt;__row_label__agency_execute -->
<!-- __row_label__agency_execute&#45;&gt;agency -->
<!-- __row_label__court_audit -->
<g id="node17" class="node">
<title>__row_label__court_audit</title>
<text text-anchor="middle" x="55.5" y="-135.34" font-family="Helvetica,sans-Serif" font-size="10.00" fill="#666666">stage: court_audit</text>
</g>
<!-- __row_label__agency_execute&#45;&gt;__row_label__court_audit -->
<!-- __row_label__court_audit&#45;&gt;supreme_court -->
<!-- __row_label__completed -->
<g id="node18" class="node">
<title>__row_label__completed</title>
<text text-anchor="middle" x="55.5" y="-19.42" font-family="Helvetica,sans-Serif" font-size="10.00" fill="#666666">stage: completed</text>
</g>
<!-- __row_label__court_audit&#45;&gt;__row_label__completed -->
<!-- __row_label__completed&#45;&gt;__terminal__ -->
</g>
</svg>
