<?xml version="1.0" encoding="UTF-8" standalone="no"?>
<!DOCTYPE svg PUBLIC "-//W3C//DTD SVG 1.1//EN"
 "http://www.w3.org/Graphics/SVG/1.1/DTD/svg11.dtd">
<!-- Generated by graphviz version 2.50.0 (0)
 -->
<!-- Title: us_federal_gated Pages: 1 -->
<svg width="907pt" height="1157pt"
 viewBox="0.00 0.00 907.00 1156.84" xmlns="http://www.w3.org/2000/svg" xmlns:xlink="http://www.w3.org/1999/xlink">
<g id="graph0" class="graph" transform="scale(1 1) rotate(0) translate(36 1120.84)">
<title>us_federal_gated</title>
<polygon fill="white" stroke="transparent" points="-36,36 -36,-1120.84 871,-1120.84 871,36 -36,36"/>
<!-- legislator -->
<g id="node1" class="node">
<title>legislator</title>
<polygon fill="#ddeeff" stroke="#2255aa" stroke-width="3" points="295,-1084.84 241,-1084.84 241,-1048.84 295,-1048.84 295,-1084.84"/>
<text text-anchor="middle" x="268" y="-1063.74" font-family="Helvetica,sans-Serif" font-size="12.00" fill="#000000">议员</text>
</g>
<!-- committee -->
<g id="node2" class="node">
<title>committee</title>
<polygon fill="#ffe8e8" stroke="#cc2222" stroke-width="1.5" points="313,-972.84 255.5,-940.34 313,-907.84 370.5,-940.34 313,-972.84"/>
<text text-anchor="middle" x="313" y="-937.24" font-family="Helvetica,sans-Serif" font-size="12.00" fill="#000000">委员会</text>
</g>
<!-- legislator&#45;&gt;committee -->
<g id="edge18" class="edge">
<title>legislator&#45;&gt;committee</title>
<path fill="none" stroke="#333333" stroke-width="1.4" d="M274.16,-1048.79C280.78,-1030.49 291.48,-1000.89 299.97,-977.39"/>
<polygon fill="#333333" stroke="#333333" stroke-width="1.4" points="303.35,-978.33 303.46,-967.74 296.77,-975.95 303.35,-978.33"/>
<text text-anchor="middle" x="316" y="-1008.64" font-family="Helvetica,sans-Serif" font-size="9.00" fill="#333333">下一步 | 默认</text>
</g>
<!-- house -->
<g id="node3" class="node">
<title>house</title>
<polygon fill="#ffe8e8" stroke="#cc2222" stroke-width="1.5" points="269,-831.84 211.5,-799.34 269,-766.84 326.5,-799.34 269,-831.84"/>
<text text-anchor="middle" x="269" y="-796.24" font-family="Helvetica,sans-Serif" font-size="12.00" fill="#000000">众议院</text>
</g>
<!-- committee&#45;&gt;house -->
<g id="edge19" class="edge">
<title>committee&#45;&gt;house</title>
<path fill="none" stroke="#333333" stroke-width="1.4" d="M304.52,-912.54C297.74,-891.14 288.18,-860.92 280.68,-837.24"/>
<polygon fill="#333333" stroke="#333333" stroke-width="1.4" points="283.96,-836.01 277.61,-827.53 277.29,-838.12 283.96,-836.01"/>
<text text-anchor="middle" x="319" y="-867.64" font-family="Helvetica,sans-Serif" font-size="9.00" fill="#333333">通过 | 下一步</text>
</g>
<!-- __terminal__ -->
<g id="node9" class="node">
<title>__terminal__</title>
<ellipse fill="#f4f4f4" stroke="#888888" stroke-width="1.5" cx="233" cy="-21.92" rx="45.92" ry="21.84"/>
<text text-anchor="middle" x="233" y="-18.82" font-family="Helvetica,sans-Serif" font-size="12.00" fill="#444444">已完成</text>
</g>
<!-- committee&#45;&gt;__terminal__ -->
<g id="edge20" class="edge">
<title>committee&#45;&gt;__terminal__</title>
<path fill="none" stroke="#cc2222" stroke-width="1.4" stroke-dasharray="5,2" d="M362.46,-935.56C484.84,-924.84 792,-889.1 792,-800.34 792,-800.34 792,-800.34 792,-136.84 792,-35.02 431.42,-23.27 289.46,-22.59"/>
<polygon fill="#cc2222" stroke="#cc2222" stroke-width="1.4" points="289.23,-19.09 279.22,-22.56 289.21,-26.09 289.23,-19.09"/>
<text text-anchor="middle" x="813.5" y="-444.64" font-family="Helvetica,sans-Serif" font-size="9.00" fill="#cc2222">驳回 | 默认</text>
</g>
<!-- senate -->
<g id="node4" class="node">
<title>senate</title>
<polygon fill="#ffe8e8" stroke="#cc2222" stroke-width="1.5" points="269,-690.84 211.5,-658.34 269,-625.84 326.5,-658.34 269,-690.84"/>
<text text-anchor="middle" x="269" y="-655.24" font-family="Helvetica,sans-Serif" font-size="12.00" fill="#000000">参议院</text>
</g>
<!-- house&#45;&gt;senate -->
<g id="edge21" class="edge">
<title>house&#45;&gt;senate</title>
<path fill="none" stroke="#333333" stroke-width="1.4" d="M269,-766.8C269,-747.48 269,-722.51 269,-701.5"/>
<polygon fill="#333333" stroke="#333333" stroke-width="1.4" points="272.5,-701.24 269,-691.24 265.5,-701.24 272.5,-701.24"/>
<text text-anchor="middle" x="295" y="-726.64" font-family="Helvetica,sans-Serif" font-size="9.00" fill="#333333">通过 | 下一步</text>
</g>
<!-- house&#45;&gt;__terminal__ -->
<g id="edge22" class="edge">
<title>house&#45;&gt;__terminal__</title>
<path fill="none" stroke="#cc2222" stroke-width="1.4" stroke-dasharray="5,2" d="M315.95,-793.29C427.65,-779.99 700,-739.34 700,-659.34 700,-659.34 700,-659.34 700,-136.84 700,-53.13 413.22,-30.66 289.13,-24.86"/>
<polygon fill="#cc2222" stroke="#cc2222" stroke-width="1.4" points="289.2,-21.36 279.06,-24.4 288.89,-28.35 289.2,-21.36"/>
<text text-anchor="middle" x="721.5" y="-374.14" font-family="Helvetica,sans-Serif" font-size="9.00" fill="#cc2222">驳回 | 默认</text>
</g>
<!-- president -->
<g id="node5" class="node">
<title>president</title>
<polygon fill="#ffe8e8" stroke="#cc2222" stroke-width="1.5" points="269,-549.84 211.5,-517.34 269,-484.84 326.5,-517.34 269,-549.84"/>
<text text-anchor="middle" x="269" y="-514.24" font-family="Helvetica,sans-Serif" font-size="12.00" fill="#000000">总统</text>
</g>
<!-- senate&#45;&gt;president -->
<g id="edge23" class="edge">
<title>senate&#45;&gt;president</title>
<path fill="none" stroke="#333333" stroke-width="1.4" d="M269,-625.8C269,-606.48 269,-581.51 269,-560.5"/>
<polygon fill="#333333" stroke="#333333" stroke-width="1.4" points="272.5,-560.24 269,-550.24 265.5,-560.24 272.5,-560.24"/>
<text text-anchor="middle" x="295" y="-585.64" font-family="Helvetica,sans-Serif" font-size="9.00" fill="#333333">通过 | 下一步</text>
</g>
<!-- senate&#45;&gt;__terminal__ -->
<g id="edge24" class="edge">
<title>senate&#45;&gt;__terminal__</title>
<path fill="none" stroke="#cc2222" stroke-width="1.4" stroke-dasharray="5,2" d="M311.57,-649.75C404.84,-631.9 619,-583.8 619,-518.34 619,-518.34 619,-518.34 619,-136.84 619,-68.71 395.02,-38.27 288.29,-27.64"/>
<polygon fill="#cc2222" stroke="#cc2222" stroke-width="1.4" points="288.33,-24.12 278.03,-26.64 287.65,-31.09 288.33,-24.12"/>
<text text-anchor="middle" x="640.5" y="-303.64" font-family="Helvetica,sans-Serif" font-size="9.00" fill="#cc2222">驳回 | 默认</text>
</g>
<!-- congress_override_panel -->
<g id="node6" class="node">
<title>congress_override_panel</title>
<polygon fill="#ffe8e8" stroke="#cc2222" stroke-width="1.5" points="307,-408.84 225.99,-376.34 307,-343.84 388.01,-376.34 307,-408.84"/>
<text text-anchor="middle" x="307" y="-373.24" font-family="Helvetica,sans-Serif" font-size="12.00" fill="#000000">国会覆决机制</text>
</g>
<!-- president&#45;&gt;congress_override_panel -->
<g id="edge26" class="edge">
<title>president&#45;&gt;congress_override_panel</title>
<path fill="none" stroke="#cc2222" stroke-width="1.4" stroke-dasharray="5,2" d="M276.51,-488.88C282.2,-468.06 290.09,-439.19 296.42,-416.04"/>
<polygon fill="#cc2222" stroke="#cc2222" stroke-width="1.4" points="299.85,-416.75 299.12,-406.18 293.1,-414.9 299.85,-416.75"/>
<text text-anchor="middle" x="299.5" y="-444.64" font-family="Helvetica,sans-Serif" font-size="9.00" fill="#cc2222">否决</text>
</g>
<!-- agency -->
<g id="node7" class="node">
<title>agency</title>
<polygon fill="#e8f5ee" stroke="#226644" stroke-width="1.5" points="353.5,-267.84 276.5,-267.84 276.5,-231.84 353.5,-231.84 353.5,-267.84"/>
<text text-anchor="middle" x="315" y="-246.74" font-family="Helvetica,sans-Serif" font-size="12.00" fill="#000000">行政机构</text>
</g>
<!-- president&#45;&gt;agency -->
<g id="edge25" class="edge">
<title>president&#45;&gt;agency</title>
<path fill="none" stroke="#333333" stroke-width="1.4" d="M299.91,-502.13C332.66,-485.16 382.54,-453.37 404,-408.84 416.54,-382.82 413.08,-371.26 404,-343.84 394.51,-315.19 370.26,-290.88 349.46,-274.31"/>
<polygon fill="#333333" stroke="#333333" stroke-width="1.4" points="351.47,-271.44 341.41,-268.13 347.21,-276.99 351.47,-271.44"/>
<text text-anchor="middle" x="439" y="-374.14" font-family="Helvetica,sans-Serif" font-size="9.00" fill="#333333">通过 | 下一步</text>
</g>
<!-- president&#45;&gt;__terminal__ -->
<g id="edge27" class="edge">
<title>president&#45;&gt;__terminal__</title>
<path fill="none" stroke="#333333" stroke-width="1.4" d="M310.92,-508.31C360.25,-496.32 439.68,-468.41 473,-408.84 487.1,-383.63 478.79,-372.14 473,-343.84 447.14,-217.43 450.2,-168.12 359,-76.84 338.59,-56.41 309.2,-43.23 283.94,-35.02"/>
<polygon fill="#333333" stroke="#333333" stroke-width="1.4" points="284.72,-31.6 274.13,-32.01 282.67,-38.29 284.72,-31.6"/>
<text text-anchor="middle" x="468.5" y="-247.64" font-family="Helvetica,sans-Serif" font-size="9.00" fill="#333333">默认</text>
</g>
<!-- congress_override_panel&#45;&gt;agency -->
<g id="edge28" class="edge">
<title>congress_override_panel&#45;&gt;agency</title>
<path fill="none" stroke="#333333" stroke-width="1.4" d="M308.98,-344.57C310.29,-324.15 311.99,-297.61 313.26,-277.98"/>
<polygon fill="#333333" stroke="#333333" stroke-width="1.4" points="316.76,-278.08 313.91,-267.87 309.77,-277.63 316.76,-278.08"/>
<text text-anchor="middle" x="338" y="-303.64" font-family="Helvetica,sans-Serif" font-size="9.00" fill="#333333">通过 | 下一步</text>
</g>
<!-- congress_override_panel&#45;&gt;__terminal__ -->
<g id="edge29" class="edge">
<title>congress_override_panel&#45;&gt;__terminal__</title>
<path fill="none" stroke="#cc2222" stroke-width="1.4" stroke-dasharray="5,2" d="M292.9,-349.2C282.08,-327.92 267.73,-296.77 260,-267.84 239.98,-192.88 234.78,-101.2 233.44,-54.12"/>
<polygon fill="#cc2222" stroke="#cc2222" stroke-width="1.4" points="236.94,-53.87 233.2,-43.95 229.94,-54.04 236.94,-53.87"/>
<text text-anchor="middle" x="267.5" y="-191.64" font-family="Helvetica,sans-Serif" font-size="9.00" fill="#cc2222">驳回 | 默认</text>
</g>
<!-- supreme_court -->
<g id="node8" class="node">
<title>supreme_court</title>
<polygon fill="#f0e8ff" stroke="#6633aa" stroke-width="1.5" points="343.5,-155.84 266.5,-155.84 266.5,-119.84 343.5,-119.84 343.5,-155.84"/>
<text text-anchor="middle" x="305" y="-134.74" font-family="Helvetica,sans-Serif" font-size="12.00" fill="#000000">最高法院</text>
</g>
<!-- agency&#45;&gt;supreme_court -->
<g id="edge30" class="edge">
<title>agency&#45;&gt;supreme_court</title>
<path fill="none" stroke="#333333" stroke-width="1.4" d="M313.44,-231.65C311.84,-214.06 309.33,-186.45 307.46,-165.91"/>
<polygon fill="#333333" stroke="#333333" stroke-width="1.4" points="310.94,-165.55 306.55,-155.91 303.97,-166.18 310.94,-165.55"/>
<text text-anchor="middle" x="337" y="-191.64" font-family="Helvetica,sans-Serif" font-size="9.00" fill="#333333">下一步 | 默认</text>
</g>
<!-- supreme_court&#45;&gt;__terminal__ -->
<g id="edge31" class="edge">
<title>supreme_court&#45;&gt;__terminal__</title>
<path fill="none" stroke="#6633aa" stroke-width="1.4" stroke-dasharray="1,5" d="M294.06,-119.54C282.71,-101.57 264.74,-73.13 251.23,-51.76"/>
<polygon fill="#6633aa" stroke="#6633aa" stroke-width="1.4" points="254.04,-49.66 245.74,-43.08 248.13,-53.4 254.04,-49.66"/>
<text text-anchor="middle" x="312.5" y="-79.64" font-family="Helvetica,sans-Serif" font-size="9.00" fill="#6633aa">通过 | 判无效 | 默认</text>
</g>
<!-- __row_label__legislator_initiative -->
<g id="node10" class="node">
<title>__row_label__legislator_initiative</title>
<text text-anchor="middle" x="96" y="-1064.34" font-family="Helvetica,sans-Serif" font-size="10.00" fill="#666666">阶段: 议员提出法案草案并定义目标。</text>
</g>
<!-- __row_label__legislator_initiative&#45;&gt;legislator -->
<!-- __row_label__committee_modify -->
<g id="node11" class="node">
<title>__row_label__committee_modify</title>
<text text-anchor="middle" x="96" y="-937.84" font-family="Helvetica,sans-Serif" font-size="10.00" fill="#666666">阶段: 委员会听证、修改并决定是否出委员…</text>
</g>
<!-- __row_label__legislator_initiative&#45;&gt;__row_label__committee_modify -->
<!-- __row_label__committee_modify&#45;&gt;committee -->
<!-- __row_label__house_vote -->
<g id="node12" class="node">
<title>__row_label__house_vote</title>
<text text-anchor="middle" x="96" y="-796.84" font-family="Helvetica,sans-Serif" font-size="10.00" fill="#666666">阶段: 众议院全院表决。</text>
</g>
<!-- __row_label__committee_modify&#45;&gt;__row_label__house_vote -->
<!-- __row_label__house_vote&#45;&gt;house -->
<!-- __row_label__senate_vote -->
<g id="node13" class="node">
<title>__row_label__senate_vote</title>
<text text-anchor="middle" x="96" y="-655.84" font-family="Helvetica,sans-Serif" font-size="10.00" fill="#666666">阶段: 参议院全院表决。</text>
</g>
<!-- __row_label__house_vote&#45;&gt;__row_label__senate_vote -->
<!-- __row_label__senate_vote&#45;&gt;senate -->
<!-- __row_label__president_veto -->
<g id="node14" class="node">
<title>__row_label__president_veto</title>
<text text-anchor="middle" x="96" y="-514.84" font-family="Helvetica,sans-Serif" font-size="10.00" fill="#666666">阶段: 总统签署或否决。</text>
</g>
<!-- __row_label__senate_vote&#45;&gt;__row_label__president_veto -->
<!-- __row_label__president_veto&#45;&gt;president -->
<!-- __row_label__congress_override -->
<g id="node15" class="node">
<title>__row_label__congress_override</title>
<text text-anchor="middle" x="96" y="-373.84" font-family="Helvetica,sans-Serif" font-size="10.00" fill="#666666">阶段: 国会是否推翻总统否决。</text>
</g>
<!-- __row_label__president_veto&#45;&gt;__row_label__congress_override -->
<!-- __row_label__congress_override&#45;&gt;congress_override_panel -->
<!-- __row_label__agency_execute -->
<g id="node16" class="node">
<title>__row_label__agency_execute</title>
<text text-anchor="middle" x="96" y="-247.34" font-family="Helvetica,sans-Serif" font-size="10.00" fill="#666666">阶段: 行政机构执行生效法案并回报。</text>
</g>
<!-- __row_label__congress_override&#45;&gt;__row_label__agency_execute -->
<!-- __row_label__agency_execute&#45;&gt;agency -->
<!-- __row_label__court_audit -->
<g id="node17" class="node">
<title>__row_label__court_audit</title>
<text text-anchor="middle" x="96" y="-135.34" font-family="Helvetica,sans-Serif" font-size="10.00" fill="#666666">阶段: 最高法院进行合宪性审查。</text>
</g>
<!-- __row_label__agency_execute&#45;&gt;__row_label__court_audit -->
<!-- __row_label__court_audit&#45;&gt;supreme_court -->
<!-- __row_label__completed -->
<g id="node18" class="node">
<title>__row_label__completed</title>
<text text-anchor="middle" x="96" y="-19.42" font-family="Helvetica,sans-Serif" font-size="10.00" fill="#666666">阶段: 已完成</text>
</g>
<!-- __row_label__court_audit&#45;&gt;__row_label__completed -->
<!-- __row_label__completed&#45;&gt;__terminal__ -->
</g>
</svg>
