<?xml version="1.0" encoding="UTF-8" standalone="no"?>
<!DOCTYPE svg PUBLIC "-//W3C//DTD SVG 1.1//EN"
 "http://www.w3.org/Graphics/SVG/1.1/DTD/svg11.dtd">
<!-- Generated by graphviz version 2.50.0 (0)
 -->
<!-- Title: tang_sanshengliubu Pages: 1 -->
<svg width="946pt" height="705pt"
 viewBox="0.00 0.00 946.00 704.84" xmlns="http://www.w3.org/2000/svg" xmlns:xlink="http://www.w3.org/1999/xlink">
<g id="graph0" class="graph" transform="scale(1 1) rotate(0) translate(36 668.84)">
<title>tang_sanshengliubu</title>
<polygon fill="white" stroke="transparent" points="-36,36 -36,-668.84 910,-668.84 910,36 -36,36"/>
<!-- huangdi -->
<g id="node1" class="node">
<title>huangdi</title>
<polygon fill="#ddeeff" stroke="#2255aa" stroke-width="3" points="300,-632.84 246,-632.84 246,-596.84 300,-596.84 300,-632.84"/>
<text text-anchor="middle" x="273" y="-611.74" font-family="Helvetica,sans-Serif" font-size="12.00" fill="#000000">皇帝</text>
</g>
<!-- zhongshu -->
<g id="node2" class="node">
<title>zhongshu</title>
<polygon fill="#fff5e0" stroke="#aa6600" stroke-width="1.5" points="320.5,-520.84 255.5,-520.84 255.5,-484.84 320.5,-484.84 320.5,-520.84"/>
<text text-anchor="middle" x="288" y="-499.74" font-family="Helvetica,sans-Serif" font-size="12.00" fill="#000000">中书省</text>
</g>
<!-- huangdi&#45;&gt;zhongshu -->
<g id="edge12" class="edge">
<title>huangdi&#45;&gt;zhongshu</title>
<path fill="none" stroke="#333333" stroke-width="1.4" d="M275.34,-596.65C277.74,-579.06 281.51,-551.45 284.31,-530.91"/>
<polygon fill="#333333" stroke="#333333" stroke-width="1.4" points="287.79,-531.29 285.67,-520.91 280.85,-530.34 287.79,-531.29"/>
<text text-anchor="middle" x="307" y="-556.64" font-family="Helvetica,sans-Serif" font-size="9.00" fill="#333333">下一步 | 默认</text>
</g>
<!-- menxia -->
<g id="node3" class="node">
<title>menxia</title>
<polygon fill="#ffe8e8" stroke="#cc2222" stroke-width="1.5" points="310,-408.84 252.5,-376.34 310,-343.84 367.5,-376.34 310,-408.84"/>
<text text-anchor="middle" x="310" y="-373.24" font-family="Helvetica,sans-Serif" font-size="12.00" fill="#000000">门下省</text>
</g>
<!-- zhongshu&#45;&gt;menxia -->
<g id="edge13" class="edge">
<title>zhongshu&#45;&gt;menxia</title>
<path fill="none" stroke="#333333" stroke-width="1.4" d="M291.01,-484.79C294.13,-467.15 299.1,-439.02 303.18,-415.96"/>
<polygon fill="#333333" stroke="#333333" stroke-width="1.4" points="306.62,-416.57 304.92,-406.11 299.73,-415.35 306.62,-416.57"/>
<text text-anchor="middle" x="320.5" y="-444.64" font-family="Helvetica,sans-Serif" font-size="9.00" fill="#333333">提交 | 默认</text>
</g>
<!-- menxia&#45;&gt;zhongshu -->
<g id="edge15" class="edge">
<title>menxia&#45;&gt;zhongshu</title>
<path fill="none" stroke="#cc2222" stroke-width="1.4" stroke-dasharray="5,2" d="M285.14,-394.87C271.05,-406.41 254.74,-422.85 247,-441.84 241.87,-454.44 248.33,-467.07 257.54,-477.47"/>
<polygon fill="#cc2222" stroke="#cc2222" stroke-width="1.4" points="255.08,-479.96 264.6,-484.62 260.06,-475.04 255.08,-479.96"/>
<text text-anchor="middle" x="268.5" y="-444.64" font-family="Helvetica,sans-Serif" font-size="9.00" fill="#cc2222">驳回 | 默认</text>
</g>
<!-- shangshu -->
<g id="node4" class="node">
<title>shangshu</title>
<polygon fill="#e8f5ee" stroke="#226644" stroke-width="1.5" points="320.5,-267.84 255.5,-267.84 255.5,-231.84 320.5,-231.84 320.5,-267.84"/>
<text text-anchor="middle" x="288" y="-246.74" font-family="Helvetica,sans-Serif" font-size="12.00" fill="#000000">尚书省</text>
</g>
<!-- menxia&#45;&gt;shangshu -->
<g id="edge14" class="edge">
<title>menxia&#45;&gt;shangshu</title>
<path fill="none" stroke="#cc7700" stroke-width="1.4" stroke-dasharray="1,5" d="M304.9,-346.46C301.26,-325.88 296.4,-298.39 292.83,-278.17"/>
<polygon fill="#cc7700" stroke="#cc7700" stroke-width="1.4" points="296.23,-277.29 291.04,-268.05 289.34,-278.51 296.23,-277.29"/>
<text text-anchor="middle" x="329.5" y="-303.64" font-family="Helvetica,sans-Serif" font-size="9.00" fill="#cc7700">通过 | 皇帝覆写</text>
</g>
<!-- hubu -->
<g id="node5" class="node">
<title>hubu</title>
<polygon fill="#e8f5ee" stroke="#226644" stroke-width="1.5" points="698,-155.84 644,-155.84 644,-119.84 698,-119.84 698,-155.84"/>
<text text-anchor="middle" x="671" y="-134.74" font-family="Helvetica,sans-Serif" font-size="12.00" fill="#000000">户部</text>
</g>
<!-- shangshu&#45;&gt;hubu -->
<g id="edge16" class="edge">
<title>shangshu&#45;&gt;hubu</title>
<path fill="none" stroke="#333333" stroke-width="1.4" d="M320.74,-248.3C432.06,-246.12 790.95,-236.21 825,-198.84 860.75,-159.61 764.42,-145.74 708.23,-141.07"/>
<polygon fill="#333333" stroke="#333333" stroke-width="1.4" points="708.48,-137.58 698.24,-140.3 707.95,-144.56 708.48,-137.58"/>
<text text-anchor="middle" x="852.5" y="-191.64" font-family="Helvetica,sans-Serif" font-size="9.00" fill="#333333">分发 | 默认</text>
</g>
<!-- libu -->
<g id="node6" class="node">
<title>libu</title>
<polygon fill="#e8f5ee" stroke="#226644" stroke-width="1.5" points="268,-155.84 214,-155.84 214,-119.84 268,-119.84 268,-155.84"/>
<text text-anchor="middle" x="241" y="-134.74" font-family="Helvetica,sans-Serif" font-size="12.00" fill="#000000">礼部</text>
</g>
<!-- shangshu&#45;&gt;libu -->
<g id="edge17" class="edge">
<title>shangshu&#45;&gt;libu</title>
<path fill="none" stroke="#333333" stroke-width="1.4" d="M269.53,-231.58C261.18,-222.66 252.08,-211.08 247,-198.84 242.8,-188.72 241.03,-176.85 240.41,-166.35"/>
<polygon fill="#333333" stroke="#333333" stroke-width="1.4" points="243.9,-165.93 240.12,-156.03 236.9,-166.13 243.9,-165.93"/>
<text text-anchor="middle" x="268.5" y="-191.64" font-family="Helvetica,sans-Serif" font-size="9.00" fill="#333333">分发 | 默认</text>
</g>
<!-- libu_hr -->
<g id="node7" class="node">
<title>libu_hr</title>
<polygon fill="#e8f5ee" stroke="#226644" stroke-width="1.5" points="354,-155.84 300,-155.84 300,-119.84 354,-119.84 354,-155.84"/>
<text text-anchor="middle" x="327" y="-134.74" font-family="Helvetica,sans-Serif" font-size="12.00" fill="#000000">吏部</text>
</g>
<!-- shangshu&#45;&gt;libu_hr -->
<g id="edge18" class="edge">
<title>shangshu&#45;&gt;libu_hr</title>
<path fill="none" stroke="#333333" stroke-width="1.4" d="M290.47,-231.69C292.52,-219.5 295.93,-202.88 301,-188.84 303.9,-180.82 307.84,-172.46 311.77,-164.93"/>
<polygon fill="#333333" stroke="#333333" stroke-width="1.4" points="314.97,-166.37 316.68,-155.91 308.82,-163.02 314.97,-166.37"/>
<text text-anchor="middle" x="322.5" y="-191.64" font-family="Helvetica,sans-Serif" font-size="9.00" fill="#333333">分发 | 默认</text>
</g>
<!-- bingbu -->
<g id="node8" class="node">
<title>bingbu</title>
<polygon fill="#e8f5ee" stroke="#226644" stroke-width="1.5" points="440,-155.84 386,-155.84 386,-119.84 440,-119.84 440,-155.84"/>
<text text-anchor="middle" x="413" y="-134.74" font-family="Helvetica,sans-Serif" font-size="12.00" fill="#000000">兵部</text>
</g>
<!-- shangshu&#45;&gt;bingbu -->
<g id="edge19" class="edge">
<title>shangshu&#45;&gt;bingbu</title>
<path fill="none" stroke="#333333" stroke-width="1.4" d="M309.05,-231.74C320.65,-222.2 335.26,-210.02 348,-198.84 361.26,-187.21 375.7,-173.94 387.6,-162.84"/>
<polygon fill="#333333" stroke="#333333" stroke-width="1.4" points="390.11,-165.29 395.01,-155.9 385.32,-160.18 390.11,-165.29"/>
<text text-anchor="middle" x="380.5" y="-191.64" font-family="Helvetica,sans-Serif" font-size="9.00" fill="#333333">分发 | 默认</text>
</g>
<!-- xingbu -->
<g id="node9" class="node">
<title>xingbu</title>
<polygon fill="#e8f5ee" stroke="#226644" stroke-width="1.5" points="526,-155.84 472,-155.84 472,-119.84 526,-119.84 526,-155.84"/>
<text text-anchor="middle" x="499" y="-134.74" font-family="Helvetica,sans-Serif" font-size="12.00" fill="#000000">刑部</text>
</g>
<!-- shangshu&#45;&gt;xingbu -->
<g id="edge20" class="edge">
<title>shangshu&#45;&gt;xingbu</title>
<path fill="none" stroke="#333333" stroke-width="1.4" d="M320.67,-237.52C345.72,-228.36 380.83,-214.44 410,-198.84 430.15,-188.06 451.42,-173.85 468.11,-161.95"/>
<polygon fill="#333333" stroke="#333333" stroke-width="1.4" points="470.33,-164.67 476.39,-155.98 466.23,-158.99 470.33,-164.67"/>
<text text-anchor="middle" x="447.5" y="-191.64" font-family="Helvetica,sans-Serif" font-size="9.00" fill="#333333">分发 | 默认</text>
</g>
<!-- gongbu -->
<g id="node10" class="node">
<title>gongbu</title>
<polygon fill="#e8f5ee" stroke="#226644" stroke-width="1.5" points="612,-155.84 558,-155.84 558,-119.84 612,-119.84 612,-155.84"/>
<text text-anchor="middle" x="585" y="-134.74" font-family="Helvetica,sans-Serif" font-size="12.00" fill="#000000">工部</text>
</g>
<!-- shangshu&#45;&gt;gongbu -->
<g id="edge21" class="edge">
<title>shangshu&#45;&gt;gongbu</title>
<path fill="none" stroke="#333333" stroke-width="1.4" d="M320.55,-242.8C358.85,-235.11 423.95,-220.21 477,-198.84 502.3,-188.65 529.12,-173.78 549.7,-161.39"/>
<polygon fill="#333333" stroke="#333333" stroke-width="1.4" points="551.69,-164.27 558.41,-156.07 548.05,-158.3 551.69,-164.27"/>
<text text-anchor="middle" x="520.5" y="-191.64" font-family="Helvetica,sans-Serif" font-size="9.00" fill="#333333">分发 | 默认</text>
</g>
<!-- hubu&#45;&gt;shangshu -->
<g id="edge28" class="edge">
<title>hubu&#45;&gt;shangshu</title>
<path fill="none" stroke="#cc2222" stroke-width="1.4" stroke-dasharray="5,2" d="M643.57,-155.15C619.63,-168.71 583.56,-187.55 550,-198.84 474.91,-224.1 383.16,-237.93 330.56,-244.32"/>
<polygon fill="#cc2222" stroke="#cc2222" stroke-width="1.4" points="330.1,-240.85 320.58,-245.5 330.92,-247.81 330.1,-240.85"/>
<text text-anchor="middle" x="584.5" y="-191.64" font-family="Helvetica,sans-Serif" font-size="9.00" fill="#cc2222">失败</text>
</g>
<!-- __terminal__ -->
<g id="node11" class="node">
<title>__terminal__</title>
<ellipse fill="#f4f4f4" stroke="#888888" stroke-width="1.5" cx="233" cy="-21.92" rx="45.92" ry="21.84"/>
<text text-anchor="middle" x="233" y="-18.82" font-family="Helvetica,sans-Serif" font-size="12.00" fill="#444444">已完成</text>
</g>
<!-- hubu&#45;&gt;__terminal__ -->
<g id="edge22" class="edge">
<title>hubu&#45;&gt;__terminal__</title>
<path fill="none" stroke="#333333" stroke-width="1.4" d="M643.65,-120.07C620.16,-106.41 584.97,-87.67 552,-76.84 462.21,-47.36 352.66,-33.34 288.1,-27.19"/>
<polygon fill="#333333" stroke="#333333" stroke-width="1.4" points="288.41,-23.71 278.14,-26.27 287.77,-30.68 288.41,-23.71"/>
<text text-anchor="middle" x="597.5" y="-79.64" font-family="Helvetica,sans-Serif" font-size="9.00" fill="#333333">成功 | 默认</text>
</g>
<!-- libu&#45;&gt;shangshu -->
<g id="edge29" class="edge">
<title>libu&#45;&gt;shangshu</title>
<path fill="none" stroke="#cc2222" stroke-width="1.4" stroke-dasharray="5,2" d="M268.38,-151C273.49,-152.89 278.85,-154.61 284,-155.84 362.15,-174.46 589.85,-129.5 644,-188.84 687.19,-236.18 434.26,-246.17 330.7,-248.28"/>
<polygon fill="#cc2222" stroke="#cc2222" stroke-width="1.4" points="330.51,-244.78 320.58,-248.47 330.65,-251.78 330.51,-244.78"/>
<text text-anchor="middle" x="657.5" y="-191.64" font-family="Helvetica,sans-Serif" font-size="9.00" fill="#cc2222">失败</text>
</g>
<!-- libu&#45;&gt;__terminal__ -->
<g id="edge23" class="edge">
<title>libu&#45;&gt;__terminal__</title>
<path fill="none" stroke="#333333" stroke-width="1.4" d="M239.78,-119.54C238.57,-102.18 236.66,-75.07 235.18,-53.97"/>
<polygon fill="#333333" stroke="#333333" stroke-width="1.4" points="238.66,-53.61 234.47,-43.88 231.68,-54.1 238.66,-53.61"/>
<text text-anchor="middle" x="259.5" y="-79.64" font-family="Helvetica,sans-Serif" font-size="9.00" fill="#333333">成功 | 默认</text>
</g>
<!-- libu_hr&#45;&gt;shangshu -->
<g id="edge30" class="edge">
<title>libu_hr&#45;&gt;shangshu</title>
<path fill="none" stroke="#cc2222" stroke-width="1.4" stroke-dasharray="5,2" d="M354.39,-150.97C359.5,-152.86 364.85,-154.59 370,-155.84 441.87,-173.28 749.04,-143.49 700,-198.84 675.77,-226.19 431.32,-241.59 330.81,-246.8"/>
<polygon fill="#cc2222" stroke="#cc2222" stroke-width="1.4" points="330.51,-243.32 320.7,-247.32 330.86,-250.31 330.51,-243.32"/>
<text text-anchor="middle" x="714.5" y="-191.64" font-family="Helvetica,sans-Serif" font-size="9.00" fill="#cc2222">失败</text>
</g>
<!-- libu_hr&#45;&gt;__terminal__ -->
<g id="edge24" class="edge">
<title>libu_hr&#45;&gt;__terminal__</title>
<path fill="none" stroke="#333333" stroke-width="1.4" d="M316.81,-119.66C309.19,-107.3 298.2,-90.49 287,-76.84 279.14,-67.26 269.8,-57.47 261.13,-48.92"/>
<polygon fill="#333333" stroke="#333333" stroke-width="1.4" points="263.35,-46.19 253.73,-41.75 258.48,-51.22 263.35,-46.19"/>
<text text-anchor="middle" x="316.5" y="-79.64" font-family="Helvetica,sans-Serif" font-size="9.00" fill="#333333">成功 | 默认</text>
</g>
<!-- bingbu&#45;&gt;shangshu -->
<g id="edge31" class="edge">
<title>bingbu&#45;&gt;shangshu</title>
<path fill="none" stroke="#cc2222" stroke-width="1.4" stroke-dasharray="5,2" d="M440.41,-150.89C445.52,-152.78 450.86,-154.54 456,-155.84 516.18,-171.06 773.36,-152.56 732,-198.84 705.52,-228.47 436.92,-242.7 330.8,-247.2"/>
<polygon fill="#cc2222" stroke="#cc2222" stroke-width="1.4" points="330.6,-243.71 320.76,-247.62 330.9,-250.7 330.6,-243.71"/>
<text text-anchor="middle" x="745.5" y="-191.64" font-family="Helvetica,sans-Serif" font-size="9.00" fill="#cc2222">失败</text>
</g>
<!-- bingbu&#45;&gt;__terminal__ -->
<g id="edge25" class="edge">
<title>bingbu&#45;&gt;__terminal__</title>
<path fill="none" stroke="#333333" stroke-width="1.4" d="M396.49,-119.6C383.57,-106.73 364.71,-89.31 346,-76.84 324.49,-62.51 298.59,-49.86 277.01,-40.42"/>
<polygon fill="#333333" stroke="#333333" stroke-width="1.4" points="278.31,-37.17 267.74,-36.44 275.55,-43.6 278.31,-37.17"/>
<text text-anchor="middle" x="379.5" y="-79.64" font-family="Helvetica,sans-Serif" font-size="9.00" fill="#333333">成功 | 默认</text>
</g>
<!-- xingbu&#45;&gt;shangshu -->
<g id="edge32" class="edge">
<title>xingbu&#45;&gt;shangshu</title>
<path fill="none" stroke="#cc2222" stroke-width="1.4" stroke-dasharray="5,2" d="M526.44,-150.76C531.55,-152.67 536.88,-154.47 542,-155.84 638.64,-181.79 829.95,-124.47 763,-198.84 734.35,-230.67 442.61,-243.69 331.06,-247.53"/>
<polygon fill="#cc2222" stroke="#cc2222" stroke-width="1.4" points="330.72,-244.04 320.84,-247.87 330.95,-251.03 330.72,-244.04"/>
<text text-anchor="middle" x="778.5" y="-191.64" font-family="Helvetica,sans-Serif" font-size="9.00" fill="#cc2222">失败</text>
</g>
<!-- xingbu&#45;&gt;__terminal__ -->
<g id="edge26" class="edge">
<title>xingbu&#45;&gt;__terminal__</title>
<path fill="none" stroke="#333333" stroke-width="1.4" d="M477.15,-119.63C459.56,-106.45 433.77,-88.58 409,-76.84 368.61,-57.7 319.83,-43.38 283.87,-34.32"/>
<polygon fill="#333333" stroke="#333333" stroke-width="1.4" points="284.64,-30.91 274.09,-31.91 282.96,-37.7 284.64,-30.91"/>
<text text-anchor="middle" x="449.5" y="-79.64" font-family="Helvetica,sans-Serif" font-size="9.00" fill="#333333">成功 | 默认</text>
</g>
<!-- gongbu&#45;&gt;shangshu -->
<g id="edge33" class="edge">
<title>gongbu&#45;&gt;shangshu</title>
<path fill="none" stroke="#cc2222" stroke-width="1.4" stroke-dasharray="5,2" d="M612.04,-150.39C617.27,-152.39 622.76,-154.3 628,-155.84 701.02,-177.25 747.66,-130.08 796,-188.84 798.82,-192.27 798.98,-195.55 796,-198.84 764.98,-233.06 447.64,-244.7 330.84,-247.85"/>
<polygon fill="#cc2222" stroke="#cc2222" stroke-width="1.4" points="330.73,-244.35 320.83,-248.11 330.92,-251.35 330.73,-244.35"/>
<text text-anchor="middle" x="807.5" y="-191.64" font-family="Helvetica,sans-Serif" font-size="9.00" fill="#cc2222">失败</text>
</g>
<!-- gongbu&#45;&gt;__terminal__ -->
<g id="edge27" class="edge">
<title>gongbu&#45;&gt;__terminal__</title>
<path fill="none" stroke="#333333" stroke-width="1.4" d="M559.93,-119.79C539.09,-106.33 508.23,-88.02 479,-76.84 415.39,-52.5 338.11,-37.82 287.35,-30.05"/>
<polygon fill="#333333" stroke="#333333" stroke-width="1.4" points="287.66,-26.56 277.25,-28.54 286.62,-33.48 287.66,-26.56"/>
<text text-anchor="middle" x="522.5" y="-79.64" font-family="Helvetica,sans-Serif" font-size="9.00" fill="#333333">成功 | 默认</text>
</g>
<!-- __row_label__huangdi_intent -->
<g id="node12" class="node">
<title>__row_label__huangdi_intent</title>
<text text-anchor="middle" x="96" y="-612.34" font-family="Helvetica,sans-Serif" font-size="10.00" fill="#666666">阶段: 皇帝授意并明确政策目标与边界。</text>
</g>
<!-- __row_label__huangdi_intent&#45;&gt;huangdi -->
<!-- __row_label__zhongshu_draft -->
<g id="node13" class="node">
<title>__row_label__zhongshu_draft</title>
<text text-anchor="middle" x="96" y="-500.34" font-family="Helvetica,sans-Serif" font-size="10.00" fill="#666666">阶段: 中书省起草可审议诏令，提交门下省…</text>
</g>
<!-- __row_label__huangdi_intent&#45;&gt;__row_label__zhongshu_draft -->
<!-- __row_label__zhongshu_draft&#45;&gt;zhongshu -->
<!-- __row_label__menxia_gate -->
<g id="node14" class="node">
<title>__row_label__menxia_gate</title>
<text text-anchor="middle" x="96" y="-373.84" font-family="Helvetica,sans-Serif" font-size="10.00" fill="#666666">阶段: 门下省封驳审查；驳回 触发回路，…</text>
</g>
<!-- __row_label__zhongshu_draft&#45;&gt;__row_label__menxia_gate -->
<!-- __row_label__menxia_gate&#45;&gt;menxia -->
<!-- __row_label__shangshu_dispatch -->
<g id="node15" class="node">
<title>__row_label__shangshu_dispatch</title>
<text text-anchor="middle" x="96" y="-247.34" font-family="Helvetica,sans-Serif" font-size="10.00" fill="#666666">阶段: 尚书省统筹六部任务拆分与依赖顺序…</text>
</g>
<!-- __row_label__menxia_gate&#45;&gt;__row_label__shangshu_dispatch -->
<!-- __row_label__shangshu_dispatch&#45;&gt;shangshu -->
<!-- __row_label__liubu_execution -->
<g id="node16" class="node">
<title>__row_label__liubu_execution</title>
<text text-anchor="middle" x="96" y="-135.34" font-family="Helvetica,sans-Serif" font-size="10.00" fill="#666666">阶段: 六部并行执行职责内任务并回报。</text>
</g>
<!-- __row_label__shangshu_dispatch&#45;&gt;__row_label__liubu_execution -->
<!-- __row_label__liubu_execution&#45;&gt;hubu -->
<!-- __row_label__completed -->
<g id="node17" class="node">
<title>__row_label__completed</title>
<text text-anchor="middle" x="96" y="-19.42" font-family="Helvetica,sans-Serif" font-size="10.00" fill="#666666">阶段: 已完成</text>
</g>
<!-- __row_label__liubu_execution&#45;&gt;__row_label__completed -->
<!-- __row_label__completed&#45;&gt;__terminal__ -->
</g>
</svg>
