<?xml version="1.0" encoding="UTF-8" standalone="no"?>
<!DOCTYPE svg PUBLIC "-//W3C//DTD SVG 1.1//EN"
 "http://www.w3.org/Graphics/SVG/1.1/DTD/svg11.dtd">
<!-- Generated by graphviz version 2.50.0 (0)
 -->
<!-- Title: tang_sanshengliubu Pages: 1 -->
<svg width="1040pt" height="733pt"
 viewBox="0.00 0.00 1039.50 732.84" xmlns="http://www.w3.org/2000/svg" xmlns:xlink="http://www.w3.org/1999/xlink">
<g id="graph0" class="graph" transform="scale(1 1) rotate(0) translate(36 696.84)">
<title>tang_sanshengliubu</title>
<polygon fill="white" stroke="transparent" points="-36,36 -36,-696.84 1003.5,-696.84 1003.5,36 -36,36"/>
<text text-anchor="middle" x="483.75" y="-642.44" font-family="Helvetica,sans-Serif" font-size="18.00" fill="#111111">唐代三省六部（YAML）</text>
<!-- huangdi -->
<g id="node1" class="node">
<title>huangdi</title>
<polygon fill="#ddeeff" stroke="#2255aa" stroke-width="3" points="242.5,-632.84 168.5,-632.84 168.5,-596.84 242.5,-596.84 242.5,-632.84"/>
<text text-anchor="middle" x="205.5" y="-611.74" font-family="Helvetica,sans-Serif" font-size="12.00" fill="#000000">Huangdi</text>
</g>
<!-- zhongshu -->
<g id="node2" class="node">
<title>zhongshu</title>
<polygon fill="#fff5e0" stroke="#aa6600" stroke-width="1.5" points="253,-520.84 170,-520.84 170,-484.84 253,-484.84 253,-520.84"/>
<text text-anchor="middle" x="211.5" y="-499.74" font-family="Helvetica,sans-Serif" font-size="12.00" fill="#000000">Zhongshu</text>
</g>
<!-- huangdi&#45;&gt;zhongshu -->
<g id="edge12" class="edge">
<title>huangdi&#45;&gt;zhongshu</title>
<path fill="none" stroke="#333333" stroke-width="1.4" d="M206.44,-596.65C207.4,-579.06 208.9,-551.45 210.02,-530.91"/>
<polygon fill="#333333" stroke="#333333" stroke-width="1.4" points="213.52,-531.08 210.57,-520.91 206.53,-530.7 213.52,-531.08"/>
<text text-anchor="middle" x="235.5" y="-556.64" font-family="Helvetica,sans-Serif" font-size="9.00" fill="#333333">next | default</text>
</g>
<!-- menxia -->
<g id="node3" class="node">
<title>menxia</title>
<polygon fill="#ffe8e8" stroke="#cc2222" stroke-width="1.5" points="221.5,-408.84 164,-376.34 221.5,-343.84 279,-376.34 221.5,-408.84"/>
<text text-anchor="middle" x="221.5" y="-373.24" font-family="Helvetica,sans-Serif" font-size="12.00" fill="#000000">Menxia</text>
</g>
<!-- zhongshu&#45;&gt;menxia -->
<g id="edge13" class="edge">
<title>zhongshu&#45;&gt;menxia</title>
<path fill="none" stroke="#333333" stroke-width="1.4" d="M212.87,-484.79C214.25,-467.58 216.44,-440.37 218.26,-417.64"/>
<polygon fill="#333333" stroke="#333333" stroke-width="1.4" points="221.76,-417.81 219.07,-407.56 214.78,-417.25 221.76,-417.81"/>
<text text-anchor="middle" x="247.5" y="-444.64" font-family="Helvetica,sans-Serif" font-size="9.00" fill="#333333">submit | default</text>
</g>
<!-- menxia&#45;&gt;zhongshu -->
<g id="edge15" class="edge">
<title>menxia&#45;&gt;zhongshu</title>
<path fill="none" stroke="#cc2222" stroke-width="1.4" stroke-dasharray="5,2" d="M194.29,-393.68C178.28,-404.97 159.46,-421.59 150.5,-441.84 144.18,-456.13 153.35,-468.8 166.34,-478.78"/>
<polygon fill="#cc2222" stroke="#cc2222" stroke-width="1.4" points="164.61,-481.83 174.83,-484.63 168.58,-476.07 164.61,-481.83"/>
<text text-anchor="middle" x="179.5" y="-444.64" font-family="Helvetica,sans-Serif" font-size="9.00" fill="#cc2222">reject | default</text>
</g>
<!-- shangshu -->
<g id="node4" class="node">
<title>shangshu</title>
<polygon fill="#e8f5ee" stroke="#226644" stroke-width="1.5" points="262,-267.84 179,-267.84 179,-231.84 262,-231.84 262,-267.84"/>
<text text-anchor="middle" x="220.5" y="-246.74" font-family="Helvetica,sans-Serif" font-size="12.00" fill="#000000">Shangshu</text>
</g>
<!-- menxia&#45;&gt;shangshu -->
<g id="edge14" class="edge">
<title>menxia&#45;&gt;shangshu</title>
<path fill="none" stroke="#cc7700" stroke-width="1.4" stroke-dasharray="1,5" d="M221.25,-343.92C221.08,-323.62 220.87,-297.47 220.72,-278.06"/>
<polygon fill="#cc7700" stroke="#cc7700" stroke-width="1.4" points="224.22,-278.02 220.64,-268.05 217.22,-278.07 224.22,-278.02"/>
<text text-anchor="middle" x="276.5" y="-303.64" font-family="Helvetica,sans-Serif" font-size="9.00" fill="#cc7700">approve | imperial override</text>
</g>
<!-- hubu -->
<g id="node5" class="node">
<title>hubu</title>
<polygon fill="#e8f5ee" stroke="#226644" stroke-width="1.5" points="684.5,-155.84 626.5,-155.84 626.5,-119.84 684.5,-119.84 684.5,-155.84"/>
<text text-anchor="middle" x="655.5" y="-134.74" font-family="Helvetica,sans-Serif" font-size="12.00" fill="#000000">Hubu</text>
</g>
<!-- shangshu&#45;&gt;hubu -->
<g id="edge16" class="edge">
<title>shangshu&#45;&gt;hubu</title>
<path fill="none" stroke="#333333" stroke-width="1.4" d="M262.05,-248.96C402.24,-248.94 851.44,-245.22 894.5,-198.84 922.86,-168.3 769.61,-149.49 694.77,-142.25"/>
<polygon fill="#333333" stroke="#333333" stroke-width="1.4" points="695.04,-138.76 684.75,-141.3 694.38,-145.73 695.04,-138.76"/>
<text text-anchor="middle" x="932.5" y="-191.64" font-family="Helvetica,sans-Serif" font-size="9.00" fill="#333333">dispatch | default</text>
</g>
<!-- libu -->
<g id="node6" class="node">
<title>libu</title>
<polygon fill="#e8f5ee" stroke="#226644" stroke-width="1.5" points="192.5,-155.84 138.5,-155.84 138.5,-119.84 192.5,-119.84 192.5,-155.84"/>
<text text-anchor="middle" x="165.5" y="-134.74" font-family="Helvetica,sans-Serif" font-size="12.00" fill="#000000">Libu</text>
</g>
<!-- shangshu&#45;&gt;libu -->
<g id="edge17" class="edge">
<title>shangshu&#45;&gt;libu</title>
<path fill="none" stroke="#333333" stroke-width="1.4" d="M178.96,-233.1C164.08,-225.21 148.92,-214.03 140.5,-198.84 134.47,-187.97 138.26,-175.34 144.54,-164.49"/>
<polygon fill="#333333" stroke="#333333" stroke-width="1.4" points="147.64,-166.14 150.23,-155.86 141.8,-162.28 147.64,-166.14"/>
<text text-anchor="middle" x="175.5" y="-191.64" font-family="Helvetica,sans-Serif" font-size="9.00" fill="#333333">dispatch | default</text>
</g>
<!-- libu_hr -->
<g id="node7" class="node">
<title>libu_hr</title>
<polygon fill="#e8f5ee" stroke="#226644" stroke-width="1.5" points="292.5,-155.84 224.5,-155.84 224.5,-119.84 292.5,-119.84 292.5,-155.84"/>
<text text-anchor="middle" x="258.5" y="-134.74" font-family="Helvetica,sans-Serif" font-size="12.00" fill="#000000">Libu Hr</text>
</g>
<!-- shangshu&#45;&gt;libu_hr -->
<g id="edge18" class="edge">
<title>shangshu&#45;&gt;libu_hr</title>
<path fill="none" stroke="#333333" stroke-width="1.4" d="M217.66,-231.82C216.29,-219.55 215.81,-202.76 220.5,-188.84 223.45,-180.08 228.62,-171.63 234.21,-164.26"/>
<polygon fill="#333333" stroke="#333333" stroke-width="1.4" points="237.23,-166.09 240.86,-156.14 231.82,-161.66 237.23,-166.09"/>
<text text-anchor="middle" x="255.5" y="-191.64" font-family="Helvetica,sans-Serif" font-size="9.00" fill="#333333">dispatch | default</text>
</g>
<!-- bingbu -->
<g id="node8" class="node">
<title>bingbu</title>
<polygon fill="#e8f5ee" stroke="#226644" stroke-width="1.5" points="392,-155.84 325,-155.84 325,-119.84 392,-119.84 392,-155.84"/>
<text text-anchor="middle" x="358.5" y="-134.74" font-family="Helvetica,sans-Serif" font-size="12.00" fill="#000000">Bingbu</text>
</g>
<!-- shangshu&#45;&gt;bingbu -->
<g id="edge19" class="edge">
<title>shangshu&#45;&gt;bingbu</title>
<path fill="none" stroke="#333333" stroke-width="1.4" d="M247.95,-231.78C262.22,-222.55 279.72,-210.64 294.5,-198.84 308.37,-187.77 322.86,-174.35 334.55,-163.02"/>
<polygon fill="#333333" stroke="#333333" stroke-width="1.4" points="337.1,-165.41 341.78,-155.91 332.2,-160.42 337.1,-165.41"/>
<text text-anchor="middle" x="341.5" y="-191.64" font-family="Helvetica,sans-Serif" font-size="9.00" fill="#333333">dispatch | default</text>
</g>
<!-- xingbu -->
<g id="node9" class="node">
<title>xingbu</title>
<polygon fill="#e8f5ee" stroke="#226644" stroke-width="1.5" points="491,-155.84 424,-155.84 424,-119.84 491,-119.84 491,-155.84"/>
<text text-anchor="middle" x="457.5" y="-134.74" font-family="Helvetica,sans-Serif" font-size="12.00" fill="#000000">Xingbu</text>
</g>
<!-- shangshu&#45;&gt;xingbu -->
<g id="edge20" class="edge">
<title>shangshu&#45;&gt;xingbu</title>
<path fill="none" stroke="#333333" stroke-width="1.4" d="M262.01,-240.92C296.26,-233.29 345.41,-219.79 384.5,-198.84 402.27,-189.32 419.8,-175.11 433.23,-162.91"/>
<polygon fill="#333333" stroke="#333333" stroke-width="1.4" points="435.7,-165.39 440.63,-156.01 430.93,-160.27 435.7,-165.39"/>
<text text-anchor="middle" x="435.5" y="-191.64" font-family="Helvetica,sans-Serif" font-size="9.00" fill="#333333">dispatch | default</text>
</g>
<!-- gongbu -->
<g id="node10" class="node">
<title>gongbu</title>
<polygon fill="#e8f5ee" stroke="#226644" stroke-width="1.5" points="594,-155.84 523,-155.84 523,-119.84 594,-119.84 594,-155.84"/>
<text text-anchor="middle" x="558.5" y="-134.74" font-family="Helvetica,sans-Serif" font-size="12.00" fill="#000000">Gongbu</text>
</g>
<!-- shangshu&#45;&gt;gongbu -->
<g id="edge21" class="edge">
<title>shangshu&#45;&gt;gongbu</title>
<path fill="none" stroke="#333333" stroke-width="1.4" d="M262.43,-246.5C314.96,-242.29 406.76,-230.66 478.5,-198.84 498.45,-189.99 518.1,-175.36 532.93,-162.77"/>
<polygon fill="#333333" stroke="#333333" stroke-width="1.4" points="535.42,-165.24 540.65,-156.03 530.81,-159.97 535.42,-165.24"/>
<text text-anchor="middle" x="530.5" y="-191.64" font-family="Helvetica,sans-Serif" font-size="9.00" fill="#333333">dispatch | default</text>
</g>
<!-- hubu&#45;&gt;shangshu -->
<g id="edge28" class="edge">
<title>hubu&#45;&gt;shangshu</title>
<path fill="none" stroke="#cc2222" stroke-width="1.4" stroke-dasharray="5,2" d="M637.57,-156.06C621.95,-169.99 598.01,-188.87 573.5,-198.84 472.47,-239.92 343.28,-248.14 272.56,-249.27"/>
<polygon fill="#cc2222" stroke="#cc2222" stroke-width="1.4" points="272.1,-245.77 262.14,-249.39 272.18,-252.77 272.1,-245.77"/>
<text text-anchor="middle" x="606.5" y="-191.64" font-family="Helvetica,sans-Serif" font-size="9.00" fill="#cc2222">failure</text>
</g>
<!-- __terminal__ -->
<g id="node11" class="node">
<title>__terminal__</title>
<ellipse fill="#f4f4f4" stroke="#888888" stroke-width="1.5" cx="220.5" cy="-21.92" rx="61.54" ry="21.84"/>
<text text-anchor="middle" x="220.5" y="-18.82" font-family="Helvetica,sans-Serif" font-size="12.00" fill="#444444">Completed</text>
</g>
<!-- hubu&#45;&gt;__terminal__ -->
<g id="edge22" class="edge">
<title>hubu&#45;&gt;__terminal__</title>
<path fill="none" stroke="#333333" stroke-width="1.4" d="M638.32,-119.67C623.33,-105.77 600.3,-86.9 576.5,-76.84 483.57,-37.56 366.3,-26.37 292.33,-23.47"/>
<polygon fill="#333333" stroke="#333333" stroke-width="1.4" points="292.3,-19.97 282.19,-23.12 292.06,-26.97 292.3,-19.97"/>
<text text-anchor="middle" x="630.5" y="-79.64" font-family="Helvetica,sans-Serif" font-size="9.00" fill="#333333">success | default</text>
</g>
<!-- libu&#45;&gt;shangshu -->
<g id="edge29" class="edge">
<title>libu&#45;&gt;shangshu</title>
<path fill="none" stroke="#cc2222" stroke-width="1.4" stroke-dasharray="5,2" d="M192.86,-151.09C197.97,-152.97 203.33,-154.67 208.5,-155.84 259.55,-167.43 642.8,-150.55 678.5,-188.84 681.53,-192.09 681.47,-195.53 678.5,-198.84 651.77,-228.65 386.62,-242.42 272.4,-247"/>
<polygon fill="#cc2222" stroke="#cc2222" stroke-width="1.4" points="272.01,-243.51 262.16,-247.4 272.29,-250.51 272.01,-243.51"/>
<text text-anchor="middle" x="693.5" y="-191.64" font-family="Helvetica,sans-Serif" font-size="9.00" fill="#cc2222">failure</text>
</g>
<!-- libu&#45;&gt;__terminal__ -->
<g id="edge23" class="edge">
<title>libu&#45;&gt;__terminal__</title>
<path fill="none" stroke="#333333" stroke-width="1.4" d="M158.9,-119.8C155.15,-107.37 152.33,-90.39 158.5,-76.84 163.67,-65.48 172.56,-55.59 182,-47.49"/>
<polygon fill="#333333" stroke="#333333" stroke-width="1.4" points="184.37,-50.08 190.01,-41.11 180,-44.6 184.37,-50.08"/>
<text text-anchor="middle" x="192.5" y="-79.64" font-family="Helvetica,sans-Serif" font-size="9.00" fill="#333333">success | default</text>
</g>
<!-- libu_hr&#45;&gt;shangshu -->
<g id="edge30" class="edge">
<title>libu_hr&#45;&gt;shangshu</title>
<path fill="none" stroke="#cc2222" stroke-width="1.4" stroke-dasharray="5,2" d="M292.61,-151.7C297.87,-153.32 303.29,-154.77 308.5,-155.84 403.23,-175.23 806.53,-127.28 741.5,-198.84 710.33,-233.14 397.95,-244.53 272.37,-247.74"/>
<polygon fill="#cc2222" stroke="#cc2222" stroke-width="1.4" points="272.14,-244.24 262.23,-247.99 272.32,-251.24 272.14,-244.24"/>
<text text-anchor="middle" x="759.5" y="-191.64" font-family="Helvetica,sans-Serif" font-size="9.00" fill="#cc2222">failure</text>
</g>
<!-- libu_hr&#45;&gt;__terminal__ -->
<g id="edge24" class="edge">
<title>libu_hr&#45;&gt;__terminal__</title>
<path fill="none" stroke="#333333" stroke-width="1.4" d="M250.02,-119.54C245.59,-110.04 240.31,-97.97 236.5,-86.84 232.89,-76.29 229.71,-64.5 227.15,-53.95"/>
<polygon fill="#333333" stroke="#333333" stroke-width="1.4" points="230.49,-52.85 224.81,-43.91 223.67,-54.44 230.49,-52.85"/>
<text text-anchor="middle" x="270.5" y="-79.64" font-family="Helvetica,sans-Serif" font-size="9.00" fill="#333333">success | default</text>
</g>
<!-- bingbu&#45;&gt;shangshu -->
<g id="edge31" class="edge">
<title>bingbu&#45;&gt;shangshu</title>
<path fill="none" stroke="#cc2222" stroke-width="1.4" stroke-dasharray="5,2" d="M392.2,-151.74C397.27,-153.33 402.48,-154.77 407.5,-155.84 489.09,-173.32 836.81,-137.27 780.5,-198.84 746.58,-235.92 404.89,-245.7 272.51,-248.11"/>
<polygon fill="#cc2222" stroke="#cc2222" stroke-width="1.4" points="272.16,-244.61 262.22,-248.29 272.28,-251.61 272.16,-244.61"/>
<text text-anchor="middle" x="797.5" y="-191.64" font-family="Helvetica,sans-Serif" font-size="9.00" fill="#cc2222">failure</text>
</g>
<!-- bingbu&#45;&gt;__terminal__ -->
<g id="edge25" class="edge">
<title>bingbu&#45;&gt;__terminal__</title>
<path fill="none" stroke="#333333" stroke-width="1.4" d="M346.64,-119.77C337.24,-107 323.27,-89.61 308.5,-76.84 294.92,-65.1 278.49,-54.29 263.52,-45.48"/>
<polygon fill="#333333" stroke="#333333" stroke-width="1.4" points="264.84,-42.2 254.42,-40.26 261.36,-48.27 264.84,-42.2"/>
<text text-anchor="middle" x="352.5" y="-79.64" font-family="Helvetica,sans-Serif" font-size="9.00" fill="#333333">success | default</text>
</g>
<!-- xingbu&#45;&gt;shangshu -->
<g id="edge32" class="edge">
<title>xingbu&#45;&gt;shangshu</title>
<path fill="none" stroke="#cc2222" stroke-width="1.4" stroke-dasharray="5,2" d="M491.21,-151.66C496.28,-153.26 501.49,-154.72 506.5,-155.84 574.81,-171.09 865.88,-147.33 818.5,-198.84 781.9,-238.63 411.43,-246.77 272.63,-248.42"/>
<polygon fill="#cc2222" stroke="#cc2222" stroke-width="1.4" points="272.23,-244.93 262.27,-248.54 272.31,-251.93 272.23,-244.93"/>
<text text-anchor="middle" x="835.5" y="-191.64" font-family="Helvetica,sans-Serif" font-size="9.00" fill="#cc2222">failure</text>
</g>
<!-- xingbu&#45;&gt;__terminal__ -->
<g id="edge26" class="edge">
<title>xingbu&#45;&gt;__terminal__</title>
<path fill="none" stroke="#333333" stroke-width="1.4" d="M443.38,-119.58C431.58,-106.19 413.65,-88.08 394.5,-76.84 360.49,-56.88 318.33,-43.57 284.03,-35.17"/>
<polygon fill="#333333" stroke="#333333" stroke-width="1.4" points="284.65,-31.72 274.12,-32.82 283.04,-38.53 284.65,-31.72"/>
<text text-anchor="middle" x="442.5" y="-79.64" font-family="Helvetica,sans-Serif" font-size="9.00" fill="#333333">success | default</text>
</g>
<!-- gongbu&#45;&gt;shangshu -->
<g id="edge33" class="edge">
<title>gongbu&#45;&gt;shangshu</title>
<path fill="none" stroke="#cc2222" stroke-width="1.4" stroke-dasharray="5,2" d="M594.06,-151.42C599.52,-153.07 605.13,-154.61 610.5,-155.84 664.6,-168.2 894.17,-158.09 856.5,-198.84 817.17,-241.39 417.16,-247.79 272.42,-248.7"/>
<polygon fill="#cc2222" stroke="#cc2222" stroke-width="1.4" points="272.02,-245.21 262.04,-248.76 272.06,-252.21 272.02,-245.21"/>
<text text-anchor="middle" x="873.5" y="-191.64" font-family="Helvetica,sans-Serif" font-size="9.00" fill="#cc2222">failure</text>
</g>
<!-- gongbu&#45;&gt;__terminal__ -->
<g id="edge27" class="edge">
<title>gongbu&#45;&gt;__terminal__</title>
<path fill="none" stroke="#333333" stroke-width="1.4" d="M542.2,-119.67C528.19,-105.97 506.78,-87.37 484.5,-76.84 422.68,-47.63 345.4,-34.2 290.46,-28.05"/>
<polygon fill="#333333" stroke="#333333" stroke-width="1.4" points="290.79,-24.57 280.47,-26.99 290.05,-31.53 290.79,-24.57"/>
<text text-anchor="middle" x="534.5" y="-79.64" font-family="Helvetica,sans-Serif" font-size="9.00" fill="#333333">success | default</text>
</g>
<!-- __row_label__huangdi_intent -->
<g id="node12" class="node">
<title>__row_label__huangdi_intent</title>
<text text-anchor="middle" x="57.5" y="-612.34" font-family="Helvetica,sans-Serif" font-size="10.00" fill="#666666">stage: huangdi_intent</text>
</g>
<!-- __row_label__huangdi_intent&#45;&gt;huangdi -->
<!-- __row_label__zhongshu_draft -->
<g id="node13" class="node">
<title>__row_label__zhongshu_draft</title>
<text text-anchor="middle" x="57.5" y="-500.34" font-family="Helvetica,sans-Serif" font-size="10.00" fill="#666666">stage: zhongshu_draft</text>
</g>
<!-- __row_label__huangdi_intent&#45;&gt;__row_label__zhongshu_draft -->
<!-- __row_label__zhongshu_draft&#45;&gt;zhongshu -->
<!-- __row_label__menxia_gate -->
<g id="node14" class="node">
<title>__row_label__menxia_gate</title>
<text text-anchor="middle" x="57.5" y="-373.84" font-family="Helvetica,sans-Serif" font-size="10.00" fill="#666666">stage: menxia_gate</text>
</g>
<!-- __row_label__zhongshu_draft&#45;&gt;__row_label__menxia_gate -->
<!-- __row_label__menxia_gate&#45;&gt;menxia -->
<!-- __row_label__shangshu_dispatch -->
<g id="node15" class="node">
<title>__row_label__shangshu_dispatch</title>
<text text-anchor="middle" x="57.5" y="-247.34" font-family="Helvetica,sans-Serif" font-size="10.00" fill="#666666">stage: shangshu_dispatch</text>
</g>
<!-- __row_label__menxia_gate&#45;&gt;__row_label__shangshu_dispatch -->
<!-- __row_label__shangshu_dispatch&#45;&gt;shangshu -->
<!-- __row_label__liubu_execution -->
<g id="node16" class="node">
<title>__row_label__liubu_execution</title>
<text text-anchor="middle" x="57.5" y="-135.34" font-family="Helvetica,sans-Serif" font-size="10.00" fill="#666666">stage: liubu_execution</text>
</g>
<!-- __row_label__shangshu_dispatch&#45;&gt;__row_label__liubu_execution -->
<!-- __row_label__liubu_execution&#45;&gt;hubu -->
<!-- __row_label__completed -->
<g id="node17" class="node">
<title>__row_label__completed</title>
<text text-anchor="middle" x="57.5" y="-19.42" font-family="Helvetica,sans-Serif" font-size="10.00" fill="#666666">stage: completed</text>
</g>
<!-- __row_label__liubu_execution&#45;&gt;__row_label__completed -->
<!-- __row_label__completed&#45;&gt;__terminal__ -->
</g>
</svg>
