<?xml version="1.0" encoding="UTF-8" standalone="no"?>
<!DOCTYPE svg PUBLIC "-//W3C//DTD SVG 1.1//EN"
 "http://www.w3.org/Graphics/SVG/1.1/DTD/svg11.dtd">
<!-- Generated by graphviz version 2.50.0 (0)
 -->
<!-- Title: qinhan_junxian Pages: 1 -->
<svg width="348pt" height="592pt"
 viewBox="0.00 0.00 348.02 591.84" xmlns="http://www.w3.org/2000/svg" xmlns:xlink="http://www.w3.org/1999/xlink">
<g id="graph0" class="graph" transform="scale(1 1) rotate(0) translate(36 555.84)">
<title>qinhan_junxian</title>
<polygon fill="white" stroke="transparent" points="-36,36 -36,-555.84 312.02,-555.84 312.02,36 -36,36"/>
<text text-anchor="middle" x="138.01" y="-501.44" font-family="Helvetica,sans-Serif" font-size="18.00" fill="#111111">秦汉郡县制（YAML）</text>
<!-- huangdi -->
<g id="node1" class="node">
<title>huangdi</title>
<polygon fill="#ddeeff" stroke="#2255aa" stroke-width="3" points="238.5,-491.84 164.5,-491.84 164.5,-455.84 238.5,-455.84 238.5,-491.84"/>
<text text-anchor="middle" x="201.5" y="-470.74" font-family="Helvetica,sans-Serif" font-size="12.00" fill="#000000">Huangdi</text>
</g>
<!-- chengxiang -->
<g id="node2" class="node">
<title>chengxiang</title>
<polygon fill="#fff5e0" stroke="#aa6600" stroke-width="1.5" points="260.5,-379.84 166.5,-379.84 166.5,-343.84 260.5,-343.84 260.5,-379.84"/>
<text text-anchor="middle" x="213.5" y="-358.74" font-family="Helvetica,sans-Serif" font-size="12.00" fill="#000000">Chengxiang</text>
</g>
<!-- huangdi&#45;&gt;chengxiang -->
<g id="edge10" class="edge">
<title>huangdi&#45;&gt;chengxiang</title>
<path fill="none" stroke="#333333" stroke-width="1.4" d="M203.38,-455.65C205.29,-438.06 208.31,-410.45 210.55,-389.91"/>
<polygon fill="#333333" stroke="#333333" stroke-width="1.4" points="214.03,-390.23 211.64,-379.91 207.07,-389.47 214.03,-390.23"/>
<text text-anchor="middle" x="233.5" y="-415.64" font-family="Helvetica,sans-Serif" font-size="9.00" fill="#333333">next | default</text>
</g>
<!-- junshou -->
<g id="node3" class="node">
<title>junshou</title>
<polygon fill="#e8f5ee" stroke="#226644" stroke-width="1.5" points="231.5,-267.84 157.5,-267.84 157.5,-231.84 231.5,-231.84 231.5,-267.84"/>
<text text-anchor="middle" x="194.5" y="-246.74" font-family="Helvetica,sans-Serif" font-size="12.00" fill="#000000">Junshou</text>
</g>
<!-- chengxiang&#45;&gt;junshou -->
<g id="edge11" class="edge">
<title>chengxiang&#45;&gt;junshou</title>
<path fill="none" stroke="#333333" stroke-width="1.4" d="M210.53,-343.65C207.49,-326.06 202.72,-298.45 199.18,-277.91"/>
<polygon fill="#333333" stroke="#333333" stroke-width="1.4" points="202.6,-277.17 197.45,-267.91 195.7,-278.36 202.6,-277.17"/>
<text text-anchor="middle" x="230.5" y="-303.64" font-family="Helvetica,sans-Serif" font-size="9.00" fill="#333333">next | default</text>
</g>
<!-- xianling -->
<g id="node4" class="node">
<title>xianling</title>
<polygon fill="#e8f5ee" stroke="#226644" stroke-width="1.5" points="232,-155.84 159,-155.84 159,-119.84 232,-119.84 232,-155.84"/>
<text text-anchor="middle" x="195.5" y="-134.74" font-family="Helvetica,sans-Serif" font-size="12.00" fill="#000000">Xianling</text>
</g>
<!-- junshou&#45;&gt;xianling -->
<g id="edge12" class="edge">
<title>junshou&#45;&gt;xianling</title>
<path fill="none" stroke="#333333" stroke-width="1.4" d="M194.66,-231.65C194.82,-214.06 195.07,-186.45 195.25,-165.91"/>
<polygon fill="#333333" stroke="#333333" stroke-width="1.4" points="198.75,-165.94 195.34,-155.91 191.75,-165.88 198.75,-165.94"/>
<text text-anchor="middle" x="220.5" y="-191.64" font-family="Helvetica,sans-Serif" font-size="9.00" fill="#333333">next | default</text>
</g>
<!-- xianling&#45;&gt;junshou -->
<g id="edge14" class="edge">
<title>xianling&#45;&gt;junshou</title>
<path fill="none" stroke="#cc2222" stroke-width="1.4" stroke-dasharray="5,2" d="M182.6,-155.88C176.42,-165.11 169.68,-177.02 166.5,-188.84 163.36,-200.52 167.53,-212.73 173.53,-223.06"/>
<polygon fill="#cc2222" stroke="#cc2222" stroke-width="1.4" points="170.72,-225.16 179.13,-231.6 176.57,-221.32 170.72,-225.16"/>
<text text-anchor="middle" x="176.5" y="-191.64" font-family="Helvetica,sans-Serif" font-size="9.00" fill="#cc2222">error</text>
</g>
<!-- __terminal__ -->
<g id="node5" class="node">
<title>__terminal__</title>
<ellipse fill="#f4f4f4" stroke="#888888" stroke-width="1.5" cx="214.5" cy="-21.92" rx="61.54" ry="21.84"/>
<text text-anchor="middle" x="214.5" y="-18.82" font-family="Helvetica,sans-Serif" font-size="12.00" fill="#444444">Completed</text>
</g>
<!-- xianling&#45;&gt;__terminal__ -->
<g id="edge13" class="edge">
<title>xianling&#45;&gt;__terminal__</title>
<path fill="none" stroke="#333333" stroke-width="1.4" d="M198.39,-119.54C201.28,-102.18 205.8,-75.07 209.32,-53.97"/>
<polygon fill="#333333" stroke="#333333" stroke-width="1.4" points="212.81,-54.31 211.01,-43.88 205.91,-53.16 212.81,-54.31"/>
<text text-anchor="middle" x="230.5" y="-79.64" font-family="Helvetica,sans-Serif" font-size="9.00" fill="#333333">next | default</text>
</g>
<!-- __row_label__huangdi_decree -->
<g id="node6" class="node">
<title>__row_label__huangdi_decree</title>
<text text-anchor="middle" x="51.5" y="-471.34" font-family="Helvetica,sans-Serif" font-size="10.00" fill="#666666">stage: huangdi_decree</text>
</g>
<!-- __row_label__huangdi_decree&#45;&gt;huangdi -->
<!-- __row_label__chengxiang_plan -->
<g id="node7" class="node">
<title>__row_label__chengxiang_plan</title>
<text text-anchor="middle" x="51.5" y="-359.34" font-family="Helvetica,sans-Serif" font-size="10.00" fill="#666666">stage: chengxiang_plan</text>
</g>
<!-- __row_label__huangdi_decree&#45;&gt;__row_label__chengxiang_plan -->
<!-- __row_label__chengxiang_plan&#45;&gt;chengxiang -->
<!-- __row_label__jun_dispatch -->
<g id="node8" class="node">
<title>__row_label__jun_dispatch</title>
<text text-anchor="middle" x="51.5" y="-247.34" font-family="Helvetica,sans-Serif" font-size="10.00" fill="#666666">stage: jun_dispatch</text>
</g>
<!-- __row_label__chengxiang_plan&#45;&gt;__row_label__jun_dispatch -->
<!-- __row_label__jun_dispatch&#45;&gt;junshou -->
<!-- __row_label__xian_execute -->
<g id="node9" class="node">
<title>__row_label__xian_execute</title>
<text text-anchor="middle" x="51.5" y="-135.34" font-family="Helvetica,sans-Serif" font-size="10.00" fill="#666666">stage: xian_execute</text>
</g>
<!-- __row_label__jun_dispatch&#45;&gt;__row_label__xian_execute -->
<!-- __row_label__xian_execute&#45;&gt;xianling -->
<!-- __row_label__completed -->
<g id="node10" class="node">
<title>__row_label__completed</title>
<text text-anchor="middle" x="51.5" y="-19.42" font-family="Helvetica,sans-Serif" font-size="10.00" fill="#666666">stage: completed</text>
</g>
<!-- __row_label__xian_execute&#45;&gt;__row_label__completed -->
<!-- __row_label__completed&#45;&gt;__terminal__ -->
</g>
</svg>
