<?xml version="1.0" encoding="UTF-8" standalone="no"?>
<!DOCTYPE svg PUBLIC "-//W3C//DTD SVG 1.1//EN"
 "http://www.w3.org/Graphics/SVG/1.1/DTD/svg11.dtd">
<!-- Generated by graphviz version 2.50.0 (0)
 -->
<!-- Title: qinhan_junxian Pages: 1 -->
<svg width="282pt" height="564pt"
 viewBox="0.00 0.00 282.46 563.84" xmlns="http://www.w3.org/2000/svg" xmlns:xlink="http://www.w3.org/1999/xlink">
<g id="graph0" class="graph" transform="scale(1 1) rotate(0) translate(36 527.84)">
<title>qinhan_junxian</title>
<polygon fill="white" stroke="transparent" points="-36,36 -36,-527.84 246.46,-527.84 246.46,36 -36,36"/>
<!-- huangdi -->
<g id="node1" class="node">
<title>huangdi</title>
<polygon fill="#ddeeff" stroke="#2255aa" stroke-width="3" points="168.5,-491.84 114.5,-491.84 114.5,-455.84 168.5,-455.84 168.5,-491.84"/>
<text text-anchor="middle" x="141.5" y="-470.74" font-family="Helvetica,sans-Serif" font-size="12.00" fill="#000000">皇帝</text>
</g>
<!-- chengxiang -->
<g id="node2" class="node">
<title>chengxiang</title>
<polygon fill="#fff5e0" stroke="#aa6600" stroke-width="1.5" points="168.5,-379.84 114.5,-379.84 114.5,-343.84 168.5,-343.84 168.5,-379.84"/>
<text text-anchor="middle" x="141.5" y="-358.74" font-family="Helvetica,sans-Serif" font-size="12.00" fill="#000000">丞相</text>
</g>
<!-- huangdi&#45;&gt;chengxiang -->
<g id="edge10" class="edge">
<title>huangdi&#45;&gt;chengxiang</title>
<path fill="none" stroke="#333333" stroke-width="1.4" d="M141.5,-455.65C141.5,-438.06 141.5,-410.45 141.5,-389.91"/>
<polygon fill="#333333" stroke="#333333" stroke-width="1.4" points="145,-389.91 141.5,-379.91 138,-389.91 145,-389.91"/>
<text text-anchor="middle" x="167.5" y="-415.64" font-family="Helvetica,sans-Serif" font-size="9.00" fill="#333333">下一步 | 默认</text>
</g>
<!-- junshou -->
<g id="node3" class="node">
<title>junshou</title>
<polygon fill="#e8f5ee" stroke="#226644" stroke-width="1.5" points="168.5,-267.84 114.5,-267.84 114.5,-231.84 168.5,-231.84 168.5,-267.84"/>
<text text-anchor="middle" x="141.5" y="-246.74" font-family="Helvetica,sans-Serif" font-size="12.00" fill="#000000">郡守</text>
</g>
<!-- chengxiang&#45;&gt;junshou -->
<g id="edge11" class="edge">
<title>chengxiang&#45;&gt;junshou</title>
<path fill="none" stroke="#333333" stroke-width="1.4" d="M141.5,-343.65C141.5,-326.06 141.5,-298.45 141.5,-277.91"/>
<polygon fill="#333333" stroke="#333333" stroke-width="1.4" points="145,-277.91 141.5,-267.91 138,-277.91 145,-277.91"/>
<text text-anchor="middle" x="167.5" y="-303.64" font-family="Helvetica,sans-Serif" font-size="9.00" fill="#333333">下一步 | 默认</text>
</g>
<!-- xianling -->
<g id="node4" class="node">
<title>xianling</title>
<polygon fill="#e8f5ee" stroke="#226644" stroke-width="1.5" points="168.5,-155.84 114.5,-155.84 114.5,-119.84 168.5,-119.84 168.5,-155.84"/>
<text text-anchor="middle" x="141.5" y="-134.74" font-family="Helvetica,sans-Serif" font-size="12.00" fill="#000000">县令</text>
</g>
<!-- junshou&#45;&gt;xianling -->
<g id="edge12" class="edge">
<title>junshou&#45;&gt;xianling</title>
<path fill="none" stroke="#333333" stroke-width="1.4" d="M141.5,-231.65C141.5,-214.06 141.5,-186.45 141.5,-165.91"/>
<polygon fill="#333333" stroke="#333333" stroke-width="1.4" points="145,-165.91 141.5,-155.91 138,-165.91 145,-165.91"/>
<text text-anchor="middle" x="167.5" y="-191.64" font-family="Helvetica,sans-Serif" font-size="9.00" fill="#333333">下一步 | 默认</text>
</g>
<!-- xianling&#45;&gt;junshou -->
<g id="edge14" class="edge">
<title>xianling&#45;&gt;junshou</title>
<path fill="none" stroke="#cc2222" stroke-width="1.4" stroke-dasharray="5,2" d="M126.94,-155.85C118.67,-167.55 110.67,-183.67 114.5,-198.84 116.57,-207.05 120.29,-215.37 124.31,-222.8"/>
<polygon fill="#cc2222" stroke="#cc2222" stroke-width="1.4" points="121.42,-224.79 129.48,-231.68 127.47,-221.27 121.42,-224.79"/>
<text text-anchor="middle" x="124" y="-191.64" font-family="Helvetica,sans-Serif" font-size="9.00" fill="#cc2222">错误</text>
</g>
<!-- __terminal__ -->
<g id="node5" class="node">
<title>__terminal__</title>
<ellipse fill="#f4f4f4" stroke="#888888" stroke-width="1.5" cx="164.5" cy="-21.92" rx="45.92" ry="21.84"/>
<text text-anchor="middle" x="164.5" y="-18.82" font-family="Helvetica,sans-Serif" font-size="12.00" fill="#444444">已完成</text>
</g>
<!-- xianling&#45;&gt;__terminal__ -->
<g id="edge13" class="edge">
<title>xianling&#45;&gt;__terminal__</title>
<path fill="none" stroke="#333333" stroke-width="1.4" d="M144.99,-119.54C148.51,-102.1 154.02,-74.82 158.29,-53.69"/>
<polygon fill="#333333" stroke="#333333" stroke-width="1.4" points="161.72,-54.37 160.27,-43.88 154.86,-52.98 161.72,-54.37"/>
<text text-anchor="middle" x="178.5" y="-79.64" font-family="Helvetica,sans-Serif" font-size="9.00" fill="#333333">下一步 | 默认</text>
</g>
<!-- __row_label__huangdi_decree -->
<g id="node6" class="node">
<title>__row_label__huangdi_decree</title>
<text text-anchor="middle" x="27.5" y="-471.34" font-family="Helvetica,sans-Serif" font-size="10.00" fill="#666666">阶段: 皇帝</text>
</g>
<!-- __row_label__huangdi_decree&#45;&gt;huangdi -->
<!-- __row_label__chengxiang_plan -->
<g id="node7" class="node">
<title>__row_label__chengxiang_plan</title>
<text text-anchor="middle" x="27.5" y="-359.34" font-family="Helvetica,sans-Serif" font-size="10.00" fill="#666666">阶段: 丞相</text>
</g>
<!-- __row_label__huangdi_decree&#45;&gt;__row_label__chengxiang_plan -->
<!-- __row_label__chengxiang_plan&#45;&gt;chengxiang -->
<!-- __row_label__jun_dispatch -->
<g id="node8" class="node">
<title>__row_label__jun_dispatch</title>
<text text-anchor="middle" x="27.5" y="-247.34" font-family="Helvetica,sans-Serif" font-size="10.00" fill="#666666">阶段: 郡守</text>
</g>
<!-- __row_label__chengxiang_plan&#45;&gt;__row_label__jun_dispatch -->
<!-- __row_label__jun_dispatch&#45;&gt;junshou -->
<!-- __row_label__xian_execute -->
<g id="node9" class="node">
<title>__row_label__xian_execute</title>
<text text-anchor="middle" x="27.5" y="-135.34" font-family="Helvetica,sans-Serif" font-size="10.00" fill="#666666">阶段: 县令</text>
</g>
<!-- __row_label__jun_dispatch&#45;&gt;__row_label__xian_execute -->
<!-- __row_label__xian_execute&#45;&gt;xianling -->
<!-- __row_label__completed -->
<g id="node10" class="node">
<title>__row_label__completed</title>
<text text-anchor="middle" x="27.5" y="-19.42" font-family="Helvetica,sans-Serif" font-size="10.00" fill="#666666">阶段: 已完成</text>
</g>
<!-- __row_label__xian_execute&#45;&gt;__row_label__completed -->
<!-- __row_label__completed&#45;&gt;__terminal__ -->
</g>
</svg>
