<?xml version="1.0" encoding="UTF-8" standalone="no"?>
<!DOCTYPE svg PUBLIC "-//W3C//DTD SVG 1.1//EN"
 "http://www.w3.org/Graphics/SVG/1.1/DTD/svg11.dtd">
<!-- Generated by graphviz version 2.50.0 (0)
 -->
<!-- Title: athens_democracy Pages: 1 -->
<svg width="1248pt" height="600pt"
 viewBox="0.00 0.00 1248.19 599.68" xmlns="http://www.w3.org/2000/svg" xmlns:xlink="http://www.w3.org/1999/xlink">
<g id="graph0" class="graph" transform="scale(1 1) rotate(0) translate(36 563.68)">
<title>athens_democracy</title>
<polygon fill="white" stroke="transparent" points="-36,36 -36,-563.68 1212.19,-563.68 1212.19,36 -36,36"/>
<text text-anchor="middle" x="588.09" y="-509.28" font-family="Helvetica,sans-Serif" font-size="18.00" fill="#111111">雅典直接民主制（YAML）</text>
<!-- boule_planner_1 -->
<g id="node1" class="node">
<title>boule_planner_1</title>
<polygon fill="#fff5e0" stroke="#aa6600" stroke-width="3" points="280,-499.68 165,-499.68 165,-463.68 280,-463.68 280,-499.68"/>
<text text-anchor="middle" x="222.5" y="-478.58" font-family="Helvetica,sans-Serif" font-size="12.00" fill="#000000">Boule Planner 1</text>
</g>
<!-- citizen_01 -->
<g id="node2" class="node">
<title>citizen_01</title>
<ellipse fill="#fffbe6" stroke="#aa8800" stroke-width="1.5" stroke-dasharray="5,2" cx="223.5" cy="-365.76" rx="58.88" ry="21.84"/>
<text text-anchor="middle" x="223.5" y="-362.66" font-family="Helvetica,sans-Serif" font-size="12.00" fill="#000000">Citizen 01</text>
</g>
<!-- boule_planner_1&#45;&gt;citizen_01 -->
<g id="edge10" class="edge">
<title>boule_planner_1&#45;&gt;citizen_01</title>
<path fill="none" stroke="#333333" stroke-width="1.4" d="M222.65,-463.38C222.8,-446.02 223.04,-418.91 223.23,-397.81"/>
<polygon fill="#333333" stroke="#333333" stroke-width="1.4" points="226.73,-397.75 223.32,-387.72 219.73,-397.68 226.73,-397.75"/>
<text text-anchor="middle" x="249.5" y="-423.48" font-family="Helvetica,sans-Serif" font-size="9.00" fill="#333333">next | default</text>
</g>
<!-- citizen_02 -->
<g id="node3" class="node">
<title>citizen_02</title>
<ellipse fill="#fffbe6" stroke="#aa8800" stroke-width="1.5" stroke-dasharray="5,2" cx="372.5" cy="-365.76" rx="58.88" ry="21.84"/>
<text text-anchor="middle" x="372.5" y="-362.66" font-family="Helvetica,sans-Serif" font-size="12.00" fill="#000000">Citizen 02</text>
</g>
<!-- boule_planner_1&#45;&gt;citizen_02 -->
<g id="edge11" class="edge">
<title>boule_planner_1&#45;&gt;citizen_02</title>
<path fill="none" stroke="#333333" stroke-width="1.4" d="M244.96,-463.63C270.02,-444.59 310.83,-413.6 339.52,-391.81"/>
<polygon fill="#333333" stroke="#333333" stroke-width="1.4" points="341.79,-394.48 347.64,-385.64 337.56,-388.9 341.79,-394.48"/>
<text text-anchor="middle" x="323.5" y="-423.48" font-family="Helvetica,sans-Serif" font-size="9.00" fill="#333333">next | default</text>
</g>
<!-- citizen_03 -->
<g id="node4" class="node">
<title>citizen_03</title>
<ellipse fill="#fffbe6" stroke="#aa8800" stroke-width="1.5" stroke-dasharray="5,2" cx="521.5" cy="-365.76" rx="58.88" ry="21.84"/>
<text text-anchor="middle" x="521.5" y="-362.66" font-family="Helvetica,sans-Serif" font-size="12.00" fill="#000000">Citizen 03</text>
</g>
<!-- boule_planner_1&#45;&gt;citizen_03 -->
<g id="edge12" class="edge">
<title>boule_planner_1&#45;&gt;citizen_03</title>
<path fill="none" stroke="#333333" stroke-width="1.4" d="M269.12,-463.64C295.16,-454.06 328.18,-441.82 357.5,-430.68 396.5,-415.86 440.54,-398.67 473.16,-385.85"/>
<polygon fill="#333333" stroke="#333333" stroke-width="1.4" points="474.45,-389.1 482.47,-382.19 471.88,-382.59 474.45,-389.1"/>
<text text-anchor="middle" x="405.5" y="-423.48" font-family="Helvetica,sans-Serif" font-size="9.00" fill="#333333">next | default</text>
</g>
<!-- citizen_04 -->
<g id="node5" class="node">
<title>citizen_04</title>
<ellipse fill="#fffbe6" stroke="#aa8800" stroke-width="1.5" stroke-dasharray="5,2" cx="670.5" cy="-365.76" rx="58.88" ry="21.84"/>
<text text-anchor="middle" x="670.5" y="-362.66" font-family="Helvetica,sans-Serif" font-size="12.00" fill="#000000">Citizen 04</text>
</g>
<!-- boule_planner_1&#45;&gt;citizen_04 -->
<g id="edge13" class="edge">
<title>boule_planner_1&#45;&gt;citizen_04</title>
<path fill="none" stroke="#333333" stroke-width="1.4" d="M280.22,-468.06C324.03,-458.31 385.7,-444.24 439.5,-430.68 509.65,-413 526.8,-407.08 596.5,-387.68 602.49,-386.01 608.76,-384.26 614.99,-382.51"/>
<polygon fill="#333333" stroke="#333333" stroke-width="1.4" points="616.05,-385.84 624.73,-379.76 614.15,-379.11 616.05,-385.84"/>
<text text-anchor="middle" x="501.5" y="-423.48" font-family="Helvetica,sans-Serif" font-size="9.00" fill="#333333">next | default</text>
</g>
<!-- citizen_05 -->
<g id="node6" class="node">
<title>citizen_05</title>
<ellipse fill="#fffbe6" stroke="#aa8800" stroke-width="1.5" stroke-dasharray="5,2" cx="819.5" cy="-365.76" rx="58.88" ry="21.84"/>
<text text-anchor="middle" x="819.5" y="-362.66" font-family="Helvetica,sans-Serif" font-size="12.00" fill="#000000">Citizen 05</text>
</g>
<!-- boule_planner_1&#45;&gt;citizen_05 -->
<g id="edge14" class="edge">
<title>boule_planner_1&#45;&gt;citizen_05</title>
<path fill="none" stroke="#333333" stroke-width="1.4" d="M280.26,-472.83C377.19,-459.12 578.38,-428.36 745.5,-387.68 751.71,-386.17 758.19,-384.49 764.62,-382.76"/>
<polygon fill="#333333" stroke="#333333" stroke-width="1.4" points="765.92,-386.03 774.64,-380.01 764.07,-379.28 765.92,-386.03"/>
<text text-anchor="middle" x="614.5" y="-423.48" font-family="Helvetica,sans-Serif" font-size="9.00" fill="#333333">next | default</text>
</g>
<!-- citizen_06 -->
<g id="node7" class="node">
<title>citizen_06</title>
<ellipse fill="#fffbe6" stroke="#aa8800" stroke-width="1.5" stroke-dasharray="5,2" cx="968.5" cy="-365.76" rx="58.88" ry="21.84"/>
<text text-anchor="middle" x="968.5" y="-362.66" font-family="Helvetica,sans-Serif" font-size="12.00" fill="#000000">Citizen 06</text>
</g>
<!-- boule_planner_1&#45;&gt;citizen_06 -->
<g id="edge15" class="edge">
<title>boule_planner_1&#45;&gt;citizen_06</title>
<path fill="none" stroke="#333333" stroke-width="1.4" d="M280.19,-476.1C397.19,-466.05 670.3,-438.83 894.5,-387.68 900.97,-386.2 907.72,-384.51 914.4,-382.74"/>
<polygon fill="#333333" stroke="#333333" stroke-width="1.4" points="915.35,-386.11 924.08,-380.12 913.51,-379.36 915.35,-386.11"/>
<text text-anchor="middle" x="737.5" y="-423.48" font-family="Helvetica,sans-Serif" font-size="9.00" fill="#333333">next | default</text>
</g>
<!-- citizen_07 -->
<g id="node8" class="node">
<title>citizen_07</title>
<ellipse fill="#fffbe6" stroke="#aa8800" stroke-width="1.5" stroke-dasharray="5,2" cx="1117.5" cy="-365.76" rx="58.88" ry="21.84"/>
<text text-anchor="middle" x="1117.5" y="-362.66" font-family="Helvetica,sans-Serif" font-size="12.00" fill="#000000">Citizen 07</text>
</g>
<!-- boule_planner_1&#45;&gt;citizen_07 -->
<g id="edge16" class="edge">
<title>boule_planner_1&#45;&gt;citizen_07</title>
<path fill="none" stroke="#333333" stroke-width="1.4" d="M280.15,-478.25C415.08,-471.67 761.36,-449.64 1043.5,-387.68 1049.98,-386.26 1056.74,-384.6 1063.42,-382.85"/>
<polygon fill="#333333" stroke="#333333" stroke-width="1.4" points="1064.36,-386.22 1073.11,-380.23 1062.54,-379.46 1064.36,-386.22"/>
<text text-anchor="middle" x="891.5" y="-423.48" font-family="Helvetica,sans-Serif" font-size="9.00" fill="#333333">next | default</text>
</g>
<!-- strategos_1 -->
<g id="node9" class="node">
<title>strategos_1</title>
<polygon fill="#e8f5ee" stroke="#226644" stroke-width="1.5" points="431,-267.84 342,-267.84 342,-231.84 431,-231.84 431,-267.84"/>
<text text-anchor="middle" x="386.5" y="-246.74" font-family="Helvetica,sans-Serif" font-size="12.00" fill="#000000">Strategos 1</text>
</g>
<!-- citizen_01&#45;&gt;strategos_1 -->
<g id="edge17" class="edge">
<title>citizen_01&#45;&gt;strategos_1</title>
<path fill="none" stroke="#333333" stroke-width="1.4" d="M250.05,-346.2C278.3,-326.46 323.02,-295.21 353.51,-273.9"/>
<polygon fill="#333333" stroke="#333333" stroke-width="1.4" points="355.9,-276.5 362.09,-267.9 351.89,-270.76 355.9,-276.5"/>
<text text-anchor="middle" x="332.5" y="-303.64" font-family="Helvetica,sans-Serif" font-size="9.00" fill="#333333">approve</text>
</g>
<!-- __terminal__ -->
<g id="node11" class="node">
<title>__terminal__</title>
<ellipse fill="#f4f4f4" stroke="#888888" stroke-width="1.5" cx="218.5" cy="-21.92" rx="61.54" ry="21.84"/>
<text text-anchor="middle" x="218.5" y="-18.82" font-family="Helvetica,sans-Serif" font-size="12.00" fill="#444444">Completed</text>
</g>
<!-- citizen_01&#45;&gt;__terminal__ -->
<g id="edge24" class="edge">
<title>citizen_01&#45;&gt;__terminal__</title>
<path fill="none" stroke="#cc2222" stroke-width="1.4" stroke-dasharray="5,2" d="M206.01,-344.53C181.68,-314.92 138.8,-256.96 122.5,-198.84 106.47,-141.69 154.44,-82.58 188.23,-49.51"/>
<polygon fill="#cc2222" stroke="#cc2222" stroke-width="1.4" points="190.79,-51.9 195.61,-42.47 185.96,-46.83 190.79,-51.9"/>
<text text-anchor="middle" x="151.5" y="-191.64" font-family="Helvetica,sans-Serif" font-size="9.00" fill="#cc2222">reject | default</text>
</g>
<!-- citizen_02&#45;&gt;strategos_1 -->
<g id="edge18" class="edge">
<title>citizen_02&#45;&gt;strategos_1</title>
<path fill="none" stroke="#333333" stroke-width="1.4" d="M375.1,-343.6C377.37,-325.16 380.67,-298.32 383.13,-278.24"/>
<polygon fill="#333333" stroke="#333333" stroke-width="1.4" points="386.63,-278.52 384.37,-268.16 379.68,-277.66 386.63,-278.52"/>
<text text-anchor="middle" x="396.5" y="-303.64" font-family="Helvetica,sans-Serif" font-size="9.00" fill="#333333">approve</text>
</g>
<!-- citizen_02&#45;&gt;__terminal__ -->
<g id="edge25" class="edge">
<title>citizen_02&#45;&gt;__terminal__</title>
<path fill="none" stroke="#cc2222" stroke-width="1.4" stroke-dasharray="5,2" d="M342.63,-346.57C328.13,-336.96 310.97,-324.36 297.5,-310.84 254.31,-267.52 236.17,-257.09 217.5,-198.84 201.92,-150.21 207.12,-90.06 212.6,-54.18"/>
<polygon fill="#cc2222" stroke="#cc2222" stroke-width="1.4" points="216.12,-54.3 214.29,-43.87 209.22,-53.17 216.12,-54.3"/>
<text text-anchor="middle" x="246.5" y="-191.64" font-family="Helvetica,sans-Serif" font-size="9.00" fill="#cc2222">reject | default</text>
</g>
<!-- citizen_03&#45;&gt;strategos_1 -->
<g id="edge19" class="edge">
<title>citizen_03&#45;&gt;strategos_1</title>
<path fill="none" stroke="#333333" stroke-width="1.4" d="M497.53,-345.47C484.94,-335.27 469.3,-322.47 455.5,-310.84 441.66,-299.17 426.46,-286 413.86,-274.97"/>
<polygon fill="#333333" stroke="#333333" stroke-width="1.4" points="415.82,-272.03 405.99,-268.07 411.2,-277.3 415.82,-272.03"/>
<text text-anchor="middle" x="472.5" y="-303.64" font-family="Helvetica,sans-Serif" font-size="9.00" fill="#333333">approve</text>
</g>
<!-- citizen_03&#45;&gt;__terminal__ -->
<g id="edge26" class="edge">
<title>citizen_03&#45;&gt;__terminal__</title>
<path fill="none" stroke="#cc2222" stroke-width="1.4" stroke-dasharray="5,2" d="M485.26,-348.48C431.97,-324.29 337.45,-280.37 325.5,-267.84 294.46,-235.29 249.07,-111.59 228.87,-53.45"/>
<polygon fill="#cc2222" stroke="#cc2222" stroke-width="1.4" points="232.08,-52.04 225.51,-43.72 225.46,-54.32 232.08,-52.04"/>
<text text-anchor="middle" x="314.5" y="-191.64" font-family="Helvetica,sans-Serif" font-size="9.00" fill="#cc2222">reject | default</text>
</g>
<!-- citizen_04&#45;&gt;strategos_1 -->
<g id="edge20" class="edge">
<title>citizen_04&#45;&gt;strategos_1</title>
<path fill="none" stroke="#333333" stroke-width="1.4" d="M629.34,-349.93C600.43,-339.37 560.94,-324.66 526.5,-310.84 495.55,-298.42 461.11,-283.67 434.14,-271.91"/>
<polygon fill="#333333" stroke="#333333" stroke-width="1.4" points="435.49,-268.68 424.92,-267.88 432.68,-275.09 435.49,-268.68"/>
<text text-anchor="middle" x="543.5" y="-303.64" font-family="Helvetica,sans-Serif" font-size="9.00" fill="#333333">approve</text>
</g>
<!-- citizen_04&#45;&gt;__terminal__ -->
<g id="edge27" class="edge">
<title>citizen_04&#45;&gt;__terminal__</title>
<path fill="none" stroke="#cc2222" stroke-width="1.4" stroke-dasharray="5,2" d="M691.69,-345.23C702.29,-333.01 711.84,-316.65 706.5,-300.84 666.39,-182.19 642.69,-141.63 535.5,-76.84 494.89,-52.3 368.45,-36.58 288.07,-28.78"/>
<polygon fill="#cc2222" stroke="#cc2222" stroke-width="1.4" points="288.3,-25.29 278.02,-27.82 287.64,-32.26 288.3,-25.29"/>
<text text-anchor="middle" x="693.5" y="-191.64" font-family="Helvetica,sans-Serif" font-size="9.00" fill="#cc2222">reject | default</text>
</g>
<!-- citizen_05&#45;&gt;strategos_1 -->
<g id="edge21" class="edge">
<title>citizen_05&#45;&gt;strategos_1</title>
<path fill="none" stroke="#333333" stroke-width="1.4" d="M774.61,-351.63C765.03,-348.95 754.95,-346.23 745.5,-343.84 680.16,-327.33 662.68,-327.96 597.5,-310.84 582.68,-306.95 579.21,-305.14 564.5,-300.84 523.27,-288.81 476.52,-275.69 441.28,-265.92"/>
<polygon fill="#333333" stroke="#333333" stroke-width="1.4" points="441.77,-262.42 431.19,-263.12 439.9,-269.17 441.77,-262.42"/>
<text text-anchor="middle" x="614.5" y="-303.64" font-family="Helvetica,sans-Serif" font-size="9.00" fill="#333333">approve</text>
</g>
<!-- citizen_05&#45;&gt;__terminal__ -->
<g id="edge28" class="edge">
<title>citizen_05&#45;&gt;__terminal__</title>
<path fill="none" stroke="#cc2222" stroke-width="1.4" stroke-dasharray="5,2" d="M812.37,-343.79C799.79,-308.94 771.13,-238.08 730.5,-188.84 674.56,-121.04 650.37,-106.14 567.5,-76.84 474.94,-44.12 361.63,-31.23 289.74,-26.17"/>
<polygon fill="#cc2222" stroke="#cc2222" stroke-width="1.4" points="289.65,-22.66 279.44,-25.48 289.18,-29.65 289.65,-22.66"/>
<text text-anchor="middle" x="766.5" y="-191.64" font-family="Helvetica,sans-Serif" font-size="9.00" fill="#cc2222">reject | default</text>
</g>
<!-- citizen_06&#45;&gt;strategos_1 -->
<g id="edge22" class="edge">
<title>citizen_06&#45;&gt;strategos_1</title>
<path fill="none" stroke="#333333" stroke-width="1.4" d="M923.67,-351.36C914.09,-348.7 903.99,-346.05 894.5,-343.84 730.98,-305.85 534.92,-273.68 441.38,-259.14"/>
<polygon fill="#333333" stroke="#333333" stroke-width="1.4" points="441.72,-255.65 431.3,-257.58 440.65,-262.57 441.72,-255.65"/>
<text text-anchor="middle" x="744.5" y="-303.64" font-family="Helvetica,sans-Serif" font-size="9.00" fill="#333333">approve</text>
</g>
<!-- citizen_06&#45;&gt;__terminal__ -->
<g id="edge29" class="edge">
<title>citizen_06&#45;&gt;__terminal__</title>
<path fill="none" stroke="#cc2222" stroke-width="1.4" stroke-dasharray="5,2" d="M951.88,-344.5C923.4,-310.4 862.6,-240.2 803.5,-188.84 763.29,-153.9 752,-145.83 705.5,-119.84 571.96,-45.18 389.53,-27.46 290.17,-23.61"/>
<polygon fill="#cc2222" stroke="#cc2222" stroke-width="1.4" points="290.05,-20.1 279.94,-23.25 289.81,-27.1 290.05,-20.1"/>
<text text-anchor="middle" x="843.5" y="-191.64" font-family="Helvetica,sans-Serif" font-size="9.00" fill="#cc2222">reject | default</text>
</g>
<!-- citizen_07&#45;&gt;strategos_1 -->
<g id="edge23" class="edge">
<title>citizen_07&#45;&gt;strategos_1</title>
<path fill="none" stroke="#333333" stroke-width="1.4" d="M1073.11,-351.28C1063.41,-348.59 1053.15,-345.95 1043.5,-343.84 822.79,-295.51 554.64,-266.65 441.28,-255.79"/>
<polygon fill="#333333" stroke="#333333" stroke-width="1.4" points="441.41,-252.29 431.13,-254.83 440.75,-259.26 441.41,-252.29"/>
<text text-anchor="middle" x="881.5" y="-303.64" font-family="Helvetica,sans-Serif" font-size="9.00" fill="#333333">approve</text>
</g>
<!-- citizen_07&#45;&gt;__terminal__ -->
<g id="edge30" class="edge">
<title>citizen_07&#45;&gt;__terminal__</title>
<path fill="none" stroke="#cc2222" stroke-width="1.4" stroke-dasharray="5,2" d="M1093.65,-345.5C1051.7,-311.99 961.47,-241.5 880.5,-188.84 828.28,-154.88 814.88,-146.33 758.5,-119.84 709.86,-96.99 697.64,-89.85 645.5,-76.84 522.37,-46.11 374.67,-32.42 289.2,-26.69"/>
<polygon fill="#cc2222" stroke="#cc2222" stroke-width="1.4" points="289.29,-23.19 279.09,-26.03 288.84,-30.17 289.29,-23.19"/>
<text text-anchor="middle" x="921.5" y="-191.64" font-family="Helvetica,sans-Serif" font-size="9.00" fill="#cc2222">reject | default</text>
</g>
<!-- dikasteria_1 -->
<g id="node10" class="node">
<title>dikasteria_1</title>
<polygon fill="#f0e8ff" stroke="#6633aa" stroke-width="1.5" points="543.5,-155.84 451.5,-155.84 451.5,-119.84 543.5,-119.84 543.5,-155.84"/>
<text text-anchor="middle" x="497.5" y="-134.74" font-family="Helvetica,sans-Serif" font-size="12.00" fill="#000000">Dikasteria 1</text>
</g>
<!-- strategos_1&#45;&gt;dikasteria_1 -->
<g id="edge32" class="edge">
<title>strategos_1&#45;&gt;dikasteria_1</title>
<path fill="none" stroke="#cc7700" stroke-width="1.4" stroke-dasharray="1,5" d="M403.84,-231.65C422.42,-213.25 452.04,-183.89 472.99,-163.13"/>
<polygon fill="#cc7700" stroke="#cc7700" stroke-width="1.4" points="475.64,-165.43 480.28,-155.91 470.71,-160.46 475.64,-165.43"/>
<text text-anchor="middle" x="460" y="-191.64" font-family="Helvetica,sans-Serif" font-size="9.00" fill="#cc7700">dispute</text>
</g>
<!-- strategos_1&#45;&gt;__terminal__ -->
<g id="edge31" class="edge">
<title>strategos_1&#45;&gt;__terminal__</title>
<path fill="none" stroke="#333333" stroke-width="1.4" d="M384.52,-231.64C382.77,-219.42 379.67,-202.79 374.5,-188.84 354.65,-135.29 351.62,-117.49 311.5,-76.84 298.57,-63.74 281.79,-52.73 266.06,-44.14"/>
<polygon fill="#333333" stroke="#333333" stroke-width="1.4" points="267.43,-40.91 256.95,-39.37 264.18,-47.11 267.43,-40.91"/>
<text text-anchor="middle" x="388.5" y="-135.64" font-family="Helvetica,sans-Serif" font-size="9.00" fill="#333333">next | default</text>
</g>
<!-- dikasteria_1&#45;&gt;__terminal__ -->
<g id="edge33" class="edge">
<title>dikasteria_1&#45;&gt;__terminal__</title>
<path fill="none" stroke="#6633aa" stroke-width="1.4" stroke-dasharray="1,5" d="M471.15,-119.62C450.4,-106.61 420.42,-88.97 392.5,-76.84 355.41,-60.73 311.96,-47.26 277.75,-37.81"/>
<polygon fill="#6633aa" stroke="#6633aa" stroke-width="1.4" points="278.48,-34.38 267.91,-35.13 276.64,-41.14 278.48,-34.38"/>
<text text-anchor="middle" x="470" y="-79.64" font-family="Helvetica,sans-Serif" font-size="9.00" fill="#6633aa">approve | invalidate | default</text>
</g>
<!-- __row_label__boule_planner -->
<g id="node12" class="node">
<title>__row_label__boule_planner</title>
<text text-anchor="middle" x="55.5" y="-479.18" font-family="Helvetica,sans-Serif" font-size="10.00" fill="#666666">stage: boule_planner</text>
</g>
<!-- __row_label__boule_planner&#45;&gt;boule_planner_1 -->
<!-- __row_label__ekklesia_vote -->
<g id="node13" class="node">
<title>__row_label__ekklesia_vote</title>
<text text-anchor="middle" x="55.5" y="-363.26" font-family="Helvetica,sans-Serif" font-size="10.00" fill="#666666">stage: ekklesia_vote</text>
</g>
<!-- __row_label__boule_planner&#45;&gt;__row_label__ekklesia_vote -->
<!-- __row_label__ekklesia_vote&#45;&gt;citizen_01 -->
<!-- __row_label__strategos_execute -->
<g id="node14" class="node">
<title>__row_label__strategos_execute</title>
<text text-anchor="middle" x="55.5" y="-247.34" font-family="Helvetica,sans-Serif" font-size="10.00" fill="#666666">stage: strategos_execute</text>
</g>
<!-- __row_label__ekklesia_vote&#45;&gt;__row_label__strategos_execute -->
<!-- __row_label__strategos_execute&#45;&gt;strategos_1 -->
<!-- __row_label__dikasteria_audit -->
<g id="node15" class="node">
<title>__row_label__dikasteria_audit</title>
<text text-anchor="middle" x="55.5" y="-135.34" font-family="Helvetica,sans-Serif" font-size="10.00" fill="#666666">stage: dikasteria_audit</text>
</g>
<!-- __row_label__strategos_execute&#45;&gt;__row_label__dikasteria_audit -->
<!-- __row_label__dikasteria_audit&#45;&gt;dikasteria_1 -->
<!-- __row_label__completed -->
<g id="node16" class="node">
<title>__row_label__completed</title>
<text text-anchor="middle" x="55.5" y="-19.42" font-family="Helvetica,sans-Serif" font-size="10.00" fill="#666666">stage: completed</text>
</g>
<!-- __row_label__dikasteria_audit&#45;&gt;__row_label__completed -->
<!-- __row_label__completed&#45;&gt;__terminal__ -->
</g>
</svg>
