<?xml version="1.0" encoding="UTF-8" standalone="no"?>
<!DOCTYPE svg PUBLIC "-//W3C//DTD SVG 1.1//EN"
 "http://www.w3.org/Graphics/SVG/1.1/DTD/svg11.dtd">
<!-- Generated by graphviz version 2.50.0 (0)
 -->
<!-- Title: athens_democracy Pages: 1 -->
<svg width="1054pt" height="572pt"
 viewBox="0.00 0.00 1054.17 571.68" xmlns="http://www.w3.org/2000/svg" xmlns:xlink="http://www.w3.org/1999/xlink">
<g id="graph0" class="graph" transform="scale(1 1) rotate(0) translate(36 535.68)">
<title>athens_democracy</title>
<polygon fill="white" stroke="transparent" points="-36,36 -36,-535.68 1018.17,-535.68 1018.17,36 -36,36"/>
<!-- boule_planner_1 -->
<g id="node1" class="node">
<title>boule_planner_1</title>
<polygon fill="#fff5e0" stroke="#aa6600" stroke-width="3" points="250,-499.68 149,-499.68 149,-463.68 250,-463.68 250,-499.68"/>
<text text-anchor="middle" x="199.5" y="-478.58" font-family="Helvetica,sans-Serif" font-size="12.00" fill="#000000">五百人议事会</text>
</g>
<!-- citizen_01 -->
<g id="node2" class="node">
<title>citizen_01</title>
<ellipse fill="#fffbe6" stroke="#aa8800" stroke-width="1.5" stroke-dasharray="5,2" cx="185.5" cy="-365.76" rx="46.84" ry="21.84"/>
<text text-anchor="middle" x="185.5" y="-362.66" font-family="Helvetica,sans-Serif" font-size="12.00" fill="#000000">公民01</text>
</g>
<!-- boule_planner_1&#45;&gt;citizen_01 -->
<g id="edge10" class="edge">
<title>boule_planner_1&#45;&gt;citizen_01</title>
<path fill="none" stroke="#333333" stroke-width="1.4" d="M197.37,-463.38C195.24,-446.02 191.91,-418.91 189.32,-397.81"/>
<polygon fill="#333333" stroke="#333333" stroke-width="1.4" points="192.77,-397.21 188.08,-387.72 185.82,-398.07 192.77,-397.21"/>
<text text-anchor="middle" x="219.5" y="-423.48" font-family="Helvetica,sans-Serif" font-size="9.00" fill="#333333">下一步 | 默认</text>
</g>
<!-- citizen_02 -->
<g id="node3" class="node">
<title>citizen_02</title>
<ellipse fill="#fffbe6" stroke="#aa8800" stroke-width="1.5" stroke-dasharray="5,2" cx="310.5" cy="-365.76" rx="46.84" ry="21.84"/>
<text text-anchor="middle" x="310.5" y="-362.66" font-family="Helvetica,sans-Serif" font-size="12.00" fill="#000000">公民02</text>
</g>
<!-- boule_planner_1&#45;&gt;citizen_02 -->
<g id="edge11" class="edge">
<title>boule_planner_1&#45;&gt;citizen_02</title>
<path fill="none" stroke="#333333" stroke-width="1.4" d="M218.91,-463.53C229.39,-454.07 242.4,-441.99 253.5,-430.68 264.92,-419.04 277.02,-405.64 287.12,-394.13"/>
<polygon fill="#333333" stroke="#333333" stroke-width="1.4" points="289.83,-396.34 293.76,-386.5 284.55,-391.75 289.83,-396.34"/>
<text text-anchor="middle" x="288.5" y="-423.48" font-family="Helvetica,sans-Serif" font-size="9.00" fill="#333333">下一步 | 默认</text>
</g>
<!-- citizen_03 -->
<g id="node4" class="node">
<title>citizen_03</title>
<ellipse fill="#fffbe6" stroke="#aa8800" stroke-width="1.5" stroke-dasharray="5,2" cx="435.5" cy="-365.76" rx="46.84" ry="21.84"/>
<text text-anchor="middle" x="435.5" y="-362.66" font-family="Helvetica,sans-Serif" font-size="12.00" fill="#000000">公民03</text>
</g>
<!-- boule_planner_1&#45;&gt;citizen_03 -->
<g id="edge12" class="edge">
<title>boule_planner_1&#45;&gt;citizen_03</title>
<path fill="none" stroke="#333333" stroke-width="1.4" d="M245.38,-463.65C268.78,-454.56 297.49,-442.77 322.5,-430.68 348.89,-417.92 377.64,-401.62 399.53,-388.68"/>
<polygon fill="#333333" stroke="#333333" stroke-width="1.4" points="401.37,-391.66 408.17,-383.54 397.79,-385.65 401.37,-391.66"/>
<text text-anchor="middle" x="366.5" y="-423.48" font-family="Helvetica,sans-Serif" font-size="9.00" fill="#333333">下一步 | 默认</text>
</g>
<!-- citizen_04 -->
<g id="node5" class="node">
<title>citizen_04</title>
<ellipse fill="#fffbe6" stroke="#aa8800" stroke-width="1.5" stroke-dasharray="5,2" cx="560.5" cy="-365.76" rx="46.84" ry="21.84"/>
<text text-anchor="middle" x="560.5" y="-362.66" font-family="Helvetica,sans-Serif" font-size="12.00" fill="#000000">公民04</text>
</g>
<!-- boule_planner_1&#45;&gt;citizen_04 -->
<g id="edge13" class="edge">
<title>boule_planner_1&#45;&gt;citizen_04</title>
<path fill="none" stroke="#333333" stroke-width="1.4" d="M250.01,-470.12C290.98,-461.08 350.02,-446.96 400.5,-430.68 441.13,-417.58 486.2,-399.22 518.12,-385.53"/>
<polygon fill="#333333" stroke="#333333" stroke-width="1.4" points="519.79,-388.62 527.58,-381.45 517.01,-382.2 519.79,-388.62"/>
<text text-anchor="middle" x="452.5" y="-423.48" font-family="Helvetica,sans-Serif" font-size="9.00" fill="#333333">下一步 | 默认</text>
</g>
<!-- citizen_05 -->
<g id="node6" class="node">
<title>citizen_05</title>
<ellipse fill="#fffbe6" stroke="#aa8800" stroke-width="1.5" stroke-dasharray="5,2" cx="685.5" cy="-365.76" rx="46.84" ry="21.84"/>
<text text-anchor="middle" x="685.5" y="-362.66" font-family="Helvetica,sans-Serif" font-size="12.00" fill="#000000">公民05</text>
</g>
<!-- boule_planner_1&#45;&gt;citizen_05 -->
<g id="edge14" class="edge">
<title>boule_planner_1&#45;&gt;citizen_05</title>
<path fill="none" stroke="#333333" stroke-width="1.4" d="M250.2,-473.91C307.88,-465.73 404.67,-450.56 486.5,-430.68 548.51,-415.62 562.82,-407.44 623.5,-387.68 628.44,-386.07 633.59,-384.37 638.72,-382.66"/>
<polygon fill="#333333" stroke="#333333" stroke-width="1.4" points="640.12,-385.88 648.5,-379.39 637.9,-379.25 640.12,-385.88"/>
<text text-anchor="middle" x="549.5" y="-423.48" font-family="Helvetica,sans-Serif" font-size="9.00" fill="#333333">下一步 | 默认</text>
</g>
<!-- citizen_06 -->
<g id="node7" class="node">
<title>citizen_06</title>
<ellipse fill="#fffbe6" stroke="#aa8800" stroke-width="1.5" stroke-dasharray="5,2" cx="810.5" cy="-365.76" rx="46.84" ry="21.84"/>
<text text-anchor="middle" x="810.5" y="-362.66" font-family="Helvetica,sans-Serif" font-size="12.00" fill="#000000">公民06</text>
</g>
<!-- boule_planner_1&#45;&gt;citizen_06 -->
<g id="edge15" class="edge">
<title>boule_planner_1&#45;&gt;citizen_06</title>
<path fill="none" stroke="#333333" stroke-width="1.4" d="M250.14,-476.13C323.91,-469.04 465.05,-453.73 583.5,-430.68 657.89,-416.2 675.89,-409.36 748.5,-387.68 753.67,-386.14 759.06,-384.45 764.4,-382.72"/>
<polygon fill="#333333" stroke="#333333" stroke-width="1.4" points="765.52,-386.03 773.92,-379.58 763.33,-379.38 765.52,-386.03"/>
<text text-anchor="middle" x="654.5" y="-423.48" font-family="Helvetica,sans-Serif" font-size="9.00" fill="#333333">下一步 | 默认</text>
</g>
<!-- citizen_07 -->
<g id="node8" class="node">
<title>citizen_07</title>
<ellipse fill="#fffbe6" stroke="#aa8800" stroke-width="1.5" stroke-dasharray="5,2" cx="935.5" cy="-365.76" rx="46.84" ry="21.84"/>
<text text-anchor="middle" x="935.5" y="-362.66" font-family="Helvetica,sans-Serif" font-size="12.00" fill="#000000">公民07</text>
</g>
<!-- boule_planner_1&#45;&gt;citizen_07 -->
<g id="edge16" class="edge">
<title>boule_planner_1&#45;&gt;citizen_07</title>
<path fill="none" stroke="#333333" stroke-width="1.4" d="M250.11,-477.62C339.19,-471.77 529.61,-457.16 688.5,-430.68 771.77,-416.8 792.3,-410.76 873.5,-387.68 878.76,-386.19 884.23,-384.51 889.65,-382.78"/>
<polygon fill="#333333" stroke="#333333" stroke-width="1.4" points="890.88,-386.07 899.29,-379.63 888.7,-379.41 890.88,-386.07"/>
<text text-anchor="middle" x="768.5" y="-423.48" font-family="Helvetica,sans-Serif" font-size="9.00" fill="#333333">下一步 | 默认</text>
</g>
<!-- strategos_1 -->
<g id="node9" class="node">
<title>strategos_1</title>
<polygon fill="#e8f5ee" stroke="#226644" stroke-width="1.5" points="349.5,-267.84 295.5,-267.84 295.5,-231.84 349.5,-231.84 349.5,-267.84"/>
<text text-anchor="middle" x="322.5" y="-246.74" font-family="Helvetica,sans-Serif" font-size="12.00" fill="#000000">将军</text>
</g>
<!-- citizen_01&#45;&gt;strategos_1 -->
<g id="edge17" class="edge">
<title>citizen_01&#45;&gt;strategos_1</title>
<path fill="none" stroke="#333333" stroke-width="1.4" d="M207.82,-346.2C231.35,-326.63 268.5,-295.74 294.11,-274.45"/>
<polygon fill="#333333" stroke="#333333" stroke-width="1.4" points="296.53,-276.98 301.99,-267.9 292.06,-271.6 296.53,-276.98"/>
<text text-anchor="middle" x="272" y="-303.64" font-family="Helvetica,sans-Serif" font-size="9.00" fill="#333333">通过</text>
</g>
<!-- __terminal__ -->
<g id="node11" class="node">
<title>__terminal__</title>
<ellipse fill="#f4f4f4" stroke="#888888" stroke-width="1.5" cx="179.5" cy="-21.92" rx="45.92" ry="21.84"/>
<text text-anchor="middle" x="179.5" y="-18.82" font-family="Helvetica,sans-Serif" font-size="12.00" fill="#444444">已完成</text>
</g>
<!-- citizen_01&#45;&gt;__terminal__ -->
<g id="edge24" class="edge">
<title>citizen_01&#45;&gt;__terminal__</title>
<path fill="none" stroke="#cc2222" stroke-width="1.4" stroke-dasharray="5,2" d="M171.26,-344.53C151.08,-314.46 115.21,-255.41 102.5,-198.84 90.07,-143.51 128.15,-84.05 155.1,-50.37"/>
<polygon fill="#cc2222" stroke="#cc2222" stroke-width="1.4" points="158.03,-52.32 161.68,-42.38 152.62,-47.88 158.03,-52.32"/>
<text text-anchor="middle" x="124" y="-191.64" font-family="Helvetica,sans-Serif" font-size="9.00" fill="#cc2222">驳回 | 默认</text>
</g>
<!-- citizen_02&#45;&gt;strategos_1 -->
<g id="edge18" class="edge">
<title>citizen_02&#45;&gt;strategos_1</title>
<path fill="none" stroke="#333333" stroke-width="1.4" d="M312.73,-343.6C314.67,-325.16 317.5,-298.32 319.61,-278.24"/>
<polygon fill="#333333" stroke="#333333" stroke-width="1.4" points="323.11,-278.47 320.68,-268.16 316.15,-277.74 323.11,-278.47"/>
<text text-anchor="middle" x="327" y="-303.64" font-family="Helvetica,sans-Serif" font-size="9.00" fill="#333333">通过</text>
</g>
<!-- citizen_02&#45;&gt;__terminal__ -->
<g id="edge25" class="edge">
<title>citizen_02&#45;&gt;__terminal__</title>
<path fill="none" stroke="#cc2222" stroke-width="1.4" stroke-dasharray="5,2" d="M285.62,-347.06C272.97,-337.3 257.9,-324.41 246.5,-310.84 236.61,-299.06 185.19,-208.72 182.5,-198.84 169.12,-149.69 171.9,-89.93 175.46,-54.24"/>
<polygon fill="#cc2222" stroke="#cc2222" stroke-width="1.4" points="178.98,-54.29 176.58,-43.97 172.02,-53.53 178.98,-54.29"/>
<text text-anchor="middle" x="204" y="-191.64" font-family="Helvetica,sans-Serif" font-size="9.00" fill="#cc2222">驳回 | 默认</text>
</g>
<!-- citizen_03&#45;&gt;strategos_1 -->
<g id="edge19" class="edge">
<title>citizen_03&#45;&gt;strategos_1</title>
<path fill="none" stroke="#333333" stroke-width="1.4" d="M416.59,-345.69C397.45,-326.4 367.78,-296.49 346.89,-275.43"/>
<polygon fill="#333333" stroke="#333333" stroke-width="1.4" points="349.15,-272.74 339.62,-268.1 344.18,-277.67 349.15,-272.74"/>
<text text-anchor="middle" x="388" y="-303.64" font-family="Helvetica,sans-Serif" font-size="9.00" fill="#333333">通过</text>
</g>
<!-- citizen_03&#45;&gt;__terminal__ -->
<g id="edge26" class="edge">
<title>citizen_03&#45;&gt;__terminal__</title>
<path fill="none" stroke="#cc2222" stroke-width="1.4" stroke-dasharray="5,2" d="M401,-350.97C366.11,-335.46 312.72,-307.18 279.5,-267.84 264.9,-250.56 213.54,-114.8 190.65,-53.17"/>
<polygon fill="#cc2222" stroke="#cc2222" stroke-width="1.4" points="193.86,-51.76 187.1,-43.6 187.3,-54.19 193.86,-51.76"/>
<text text-anchor="middle" x="269" y="-191.64" font-family="Helvetica,sans-Serif" font-size="9.00" fill="#cc2222">驳回 | 默认</text>
</g>
<!-- citizen_04&#45;&gt;strategos_1 -->
<g id="edge20" class="edge">
<title>citizen_04&#45;&gt;strategos_1</title>
<path fill="none" stroke="#333333" stroke-width="1.4" d="M526.85,-350.55C502.21,-339.98 468.05,-325 438.5,-310.84 411.54,-297.93 381.59,-282.4 358.87,-270.38"/>
<polygon fill="#333333" stroke="#333333" stroke-width="1.4" points="360.39,-267.22 349.92,-265.62 357.11,-273.41 360.39,-267.22"/>
<text text-anchor="middle" x="448" y="-303.64" font-family="Helvetica,sans-Serif" font-size="9.00" fill="#333333">通过</text>
</g>
<!-- citizen_04&#45;&gt;__terminal__ -->
<g id="edge27" class="edge">
<title>citizen_04&#45;&gt;__terminal__</title>
<path fill="none" stroke="#cc2222" stroke-width="1.4" stroke-dasharray="5,2" d="M568.5,-344.12C572.39,-331.64 575.77,-315.39 573.5,-300.84 560.45,-217.38 561.82,-190.49 515.5,-119.84 499.61,-95.61 492.55,-89.52 466.5,-76.84 391.84,-40.5 295.25,-28.59 235.34,-24.72"/>
<polygon fill="#cc2222" stroke="#cc2222" stroke-width="1.4" points="235.51,-21.23 225.32,-24.13 235.1,-28.22 235.51,-21.23"/>
<text text-anchor="middle" x="576" y="-191.64" font-family="Helvetica,sans-Serif" font-size="9.00" fill="#cc2222">驳回 | 默认</text>
</g>
<!-- citizen_05&#45;&gt;strategos_1 -->
<g id="edge21" class="edge">
<title>citizen_05&#45;&gt;strategos_1</title>
<path fill="none" stroke="#333333" stroke-width="1.4" d="M648.93,-351.91C640.61,-349.13 631.78,-346.29 623.5,-343.84 566.76,-327.04 551.16,-327.94 494.5,-310.84 447.38,-296.62 393.98,-277.52 359.35,-264.72"/>
<polygon fill="#333333" stroke="#333333" stroke-width="1.4" points="360.26,-261.32 349.67,-261.13 357.83,-267.89 360.26,-261.32"/>
<text text-anchor="middle" x="504" y="-303.64" font-family="Helvetica,sans-Serif" font-size="9.00" fill="#333333">通过</text>
</g>
<!-- citizen_05&#45;&gt;__terminal__ -->
<g id="edge28" class="edge">
<title>citizen_05&#45;&gt;__terminal__</title>
<path fill="none" stroke="#cc2222" stroke-width="1.4" stroke-dasharray="5,2" d="M680.23,-343.72C664.59,-286.58 612.4,-129.29 500.5,-76.84 414.17,-36.37 302.2,-25.83 235.89,-23.34"/>
<polygon fill="#cc2222" stroke="#cc2222" stroke-width="1.4" points="235.76,-19.83 225.65,-23 235.53,-26.83 235.76,-19.83"/>
<text text-anchor="middle" x="641" y="-191.64" font-family="Helvetica,sans-Serif" font-size="9.00" fill="#cc2222">驳回 | 默认</text>
</g>
<!-- citizen_06&#45;&gt;strategos_1 -->
<g id="edge22" class="edge">
<title>citizen_06&#45;&gt;strategos_1</title>
<path fill="none" stroke="#333333" stroke-width="1.4" d="M774.32,-351.8C765.9,-349 756.93,-346.18 748.5,-343.84 606.65,-304.55 434.53,-271.3 359.95,-257.57"/>
<polygon fill="#333333" stroke="#333333" stroke-width="1.4" points="360.13,-254.05 349.67,-255.69 358.87,-260.93 360.13,-254.05"/>
<text text-anchor="middle" x="618" y="-303.64" font-family="Helvetica,sans-Serif" font-size="9.00" fill="#333333">通过</text>
</g>
<!-- citizen_06&#45;&gt;__terminal__ -->
<g id="edge29" class="edge">
<title>citizen_06&#45;&gt;__terminal__</title>
<path fill="none" stroke="#cc2222" stroke-width="1.4" stroke-dasharray="5,2" d="M799.7,-344.37C768.18,-287.5 669.91,-127.91 534.5,-76.84 433.6,-38.78 306.96,-27.54 235.44,-24.25"/>
<polygon fill="#cc2222" stroke="#cc2222" stroke-width="1.4" points="235.44,-20.74 225.3,-23.82 235.14,-27.74 235.44,-20.74"/>
<text text-anchor="middle" x="716" y="-191.64" font-family="Helvetica,sans-Serif" font-size="9.00" fill="#cc2222">驳回 | 默认</text>
</g>
<!-- citizen_07&#45;&gt;strategos_1 -->
<g id="edge23" class="edge">
<title>citizen_07&#45;&gt;strategos_1</title>
<path fill="none" stroke="#333333" stroke-width="1.4" d="M899.71,-351.69C891.19,-348.86 882.08,-346.05 873.5,-343.84 683.24,-294.84 449.18,-265.16 359.69,-254.91"/>
<polygon fill="#333333" stroke="#333333" stroke-width="1.4" points="359.83,-251.4 349.5,-253.75 359.04,-258.35 359.83,-251.4"/>
<text text-anchor="middle" x="733" y="-303.64" font-family="Helvetica,sans-Serif" font-size="9.00" fill="#333333">通过</text>
</g>
<!-- citizen_07&#45;&gt;__terminal__ -->
<g id="edge30" class="edge">
<title>citizen_07&#45;&gt;__terminal__</title>
<path fill="none" stroke="#cc2222" stroke-width="1.4" stroke-dasharray="5,2" d="M920.08,-345C874.38,-288.34 732.63,-126.24 570.5,-76.84 454.84,-41.6 312.86,-29.32 235.8,-25.09"/>
<polygon fill="#cc2222" stroke="#cc2222" stroke-width="1.4" points="235.53,-21.58 225.36,-24.55 235.17,-28.57 235.53,-21.58"/>
<text text-anchor="middle" x="798" y="-191.64" font-family="Helvetica,sans-Serif" font-size="9.00" fill="#cc2222">驳回 | 默认</text>
</g>
<!-- dikasteria_1 -->
<g id="node10" class="node">
<title>dikasteria_1</title>
<polygon fill="#f0e8ff" stroke="#6633aa" stroke-width="1.5" points="499,-155.84 422,-155.84 422,-119.84 499,-119.84 499,-155.84"/>
<text text-anchor="middle" x="460.5" y="-134.74" font-family="Helvetica,sans-Serif" font-size="12.00" fill="#000000">陪审法庭</text>
</g>
<!-- strategos_1&#45;&gt;dikasteria_1 -->
<g id="edge32" class="edge">
<title>strategos_1&#45;&gt;dikasteria_1</title>
<path fill="none" stroke="#cc7700" stroke-width="1.4" stroke-dasharray="1,5" d="M344.06,-231.65C367.46,-213.01 404.95,-183.12 431.05,-162.32"/>
<polygon fill="#cc7700" stroke="#cc7700" stroke-width="1.4" points="433.45,-164.88 439.09,-155.91 429.09,-159.4 433.45,-164.88"/>
<text text-anchor="middle" x="405" y="-191.64" font-family="Helvetica,sans-Serif" font-size="9.00" fill="#cc7700">争议</text>
</g>
<!-- strategos_1&#45;&gt;__terminal__ -->
<g id="edge31" class="edge">
<title>strategos_1&#45;&gt;__terminal__</title>
<path fill="none" stroke="#333333" stroke-width="1.4" d="M323.15,-231.78C323.51,-198.18 319.68,-122.75 281.5,-76.84 267.19,-59.63 245.95,-47.18 226.54,-38.6"/>
<polygon fill="#333333" stroke="#333333" stroke-width="1.4" points="227.78,-35.32 217.21,-34.7 225.08,-41.78 227.78,-35.32"/>
<text text-anchor="middle" x="342.5" y="-135.64" font-family="Helvetica,sans-Serif" font-size="9.00" fill="#333333">下一步 | 默认</text>
</g>
<!-- dikasteria_1&#45;&gt;__terminal__ -->
<g id="edge33" class="edge">
<title>dikasteria_1&#45;&gt;__terminal__</title>
<path fill="none" stroke="#6633aa" stroke-width="1.4" stroke-dasharray="1,5" d="M436.51,-119.68C417.25,-106.52 389.12,-88.66 362.5,-76.84 319.75,-57.86 268.48,-43.41 231.09,-34.27"/>
<polygon fill="#6633aa" stroke="#6633aa" stroke-width="1.4" points="231.48,-30.76 220.94,-31.83 229.84,-37.57 231.48,-30.76"/>
<text text-anchor="middle" x="420" y="-79.64" font-family="Helvetica,sans-Serif" font-size="9.00" fill="#6633aa">通过 | 判无效 | 默认</text>
</g>
<!-- __row_label__boule_planner -->
<g id="node12" class="node">
<title>__row_label__boule_planner</title>
<text text-anchor="middle" x="42.5" y="-479.18" font-family="Helvetica,sans-Serif" font-size="10.00" fill="#666666">阶段: 五百人议事会</text>
</g>
<!-- __row_label__boule_planner&#45;&gt;boule_planner_1 -->
<!-- __row_label__ekklesia_vote -->
<g id="node13" class="node">
<title>__row_label__ekklesia_vote</title>
<text text-anchor="middle" x="42.5" y="-363.26" font-family="Helvetica,sans-Serif" font-size="10.00" fill="#666666">阶段: 公民大会</text>
</g>
<!-- __row_label__boule_planner&#45;&gt;__row_label__ekklesia_vote -->
<!-- __row_label__ekklesia_vote&#45;&gt;citizen_01 -->
<!-- __row_label__strategos_execute -->
<g id="node14" class="node">
<title>__row_label__strategos_execute</title>
<text text-anchor="middle" x="42.5" y="-247.34" font-family="Helvetica,sans-Serif" font-size="10.00" fill="#666666">阶段: 将军</text>
</g>
<!-- __row_label__ekklesia_vote&#45;&gt;__row_label__strategos_execute -->
<!-- __row_label__strategos_execute&#45;&gt;strategos_1 -->
<!-- __row_label__dikasteria_audit -->
<g id="node15" class="node">
<title>__row_label__dikasteria_audit</title>
<text text-anchor="middle" x="42.5" y="-135.34" font-family="Helvetica,sans-Serif" font-size="10.00" fill="#666666">阶段: 陪审法庭</text>
</g>
<!-- __row_label__strategos_execute&#45;&gt;__row_label__dikasteria_audit -->
<!-- __row_label__dikasteria_audit&#45;&gt;dikasteria_1 -->
<!-- __row_label__completed -->
<g id="node16" class="node">
<title>__row_label__completed</title>
<text text-anchor="middle" x="42.5" y="-19.42" font-family="Helvetica,sans-Serif" font-size="10.00" fill="#666666">阶段: 已完成</text>
</g>
<!-- __row_label__dikasteria_audit&#45;&gt;__row_label__completed -->
<!-- __row_label__completed&#45;&gt;__terminal__ -->
</g>
</svg>
